<svg xmlns="http://www.w3.org/2000/svg" viewBox="0 0 24 24" width="512" height="512" fill="none" stroke="#1C75BC" aria-label="05-vpn-redes-privadas">
  <rect x="0" y="0" width="24" height="24" fill="white" stroke="none"/>
  <path stroke-linecap="round" stroke-linejoin="round" stroke-width="2" d="M12 15v2m-6 4h12a2 2 0 002-2v-6a2 2 0 00-2-2H6a2 2 0 00-2 2v6a2 2 0 002 2zm10-10V7a4 4 0 00-8 0v4h8z" /><path stroke-linecap="round" stroke-linejoin="round" stroke-width="1.5" d="M8.5 3.5L4 6l4.5 2.5M15.5 3.5L20 6l-4.5 2.5" />
</svg>