<?xml version="1.0" encoding="UTF-8" standalone="no"?><!DOCTYPE svg PUBLIC "-//W3C//DTD SVG 1.1//EN" "http://www.w3.org/Graphics/SVG/1.1/DTD/svg11.dtd"><svg width="100%" height="100%" viewBox="0 0 1920 1080" version="1.1" xmlns="http://www.w3.org/2000/svg" xmlns:xlink="http://www.w3.org/1999/xlink" xml:space="preserve" xmlns:serif="http://www.serif.com/" style="fill-rule:evenodd;clip-rule:evenodd;stroke-linejoin:round;stroke-miterlimit:2;"><g><path d="M993.097,417.7c-19.966,-4.506 -40.782,-4.308 -60.47,1.284c-34.784,9.878 -86.8,38.75 -90.336,123.124c0,0 -2.934,105.356 117.25,122.916c0,0 62.354,8.208 102.72,-46.188c0,0 4.868,-5.154 -1.43,-10.594c0,0 -5.44,-6.298 -12.312,1.146c0,0 -45.52,40.08 -99.63,11.452c0,0 -55.542,-26.626 -49.816,-88.752c0,0 4.866,-74.152 81.022,-83.6c0,0 38.936,-4.294 71.574,22.618c0,0 4.58,4.294 9.734,-2.29c0,0 5.726,-4.582 0,-10.308c0,0 -19.444,-29.782 -68.306,-40.808" style="fill:#262261;fill-rule:nonzero;"/><path d="M984.598,486.261c-8.774,-1.98 -17.92,-1.894 -26.57,0.564c-15.284,4.34 -38.14,17.028 -39.694,54.1c0,0 -1.29,46.294 51.52,54.01c0,0 27.398,3.606 45.136,-20.296c0,0 2.138,-2.264 -0.63,-4.654c0,0 -2.39,-2.768 -5.41,0.504c0,0 -20.002,17.612 -43.778,5.032c0,0 -24.404,-11.7 -21.888,-38.998c0,0 2.138,-32.582 35.6,-36.734c0,0 17.11,-1.886 31.45,9.938c0,0 2.014,1.888 4.278,-1.006c0,0 2.516,-2.012 0,-4.528c0,0 -8.544,-13.086 -30.014,-17.932" style="fill:#1375bc;fill-rule:nonzero;"/><path d="M974.255,456.1c13.698,-3.092 27.976,-2.956 41.484,0.88c23.862,6.778 59.546,26.584 61.972,84.466c0,0 2.012,72.278 -80.436,84.324c0,0 -42.776,5.63 -70.468,-31.688c0,0 -3.34,-3.534 0.982,-7.266c0,0 3.732,-4.322 8.444,0.786c0,0 31.23,27.496 68.35,7.856c0,0 38.102,-18.266 34.174,-60.886c0,0 -3.338,-50.87 -55.582,-57.35c0,0 -26.712,-2.946 -49.102,15.516c0,0 -3.142,2.946 -6.678,-1.572c0,0 -3.928,-3.142 0,-7.07c0,0 13.34,-20.432 46.86,-27.996" style="fill:#be1e2d;fill-rule:nonzero;"/><path d="M977.346,508.834c5.088,-1.148 10.392,-1.098 15.41,0.326c8.864,2.518 22.12,9.876 23.02,31.378c0,0 0.748,26.848 -29.878,31.322c0,0 -15.89,2.092 -26.178,-11.77c0,0 -1.24,-1.314 0.366,-2.7c0,0 1.386,-1.604 3.136,0.292c0,0 11.6,10.214 25.39,2.918c0,0 14.154,-6.784 12.694,-22.616c0,0 -1.24,-18.896 -20.646,-21.304c0,0 -9.922,-1.094 -18.24,5.764c0,0 -1.168,1.094 -2.48,-0.584c0,0 -1.46,-1.168 0,-2.626c0,0 4.954,-7.59 17.406,-10.4" style="fill:#f7931d;fill-rule:nonzero;"/></g><g transform="matrix(100,0,0,100,1633.673568,763.65)"></g><text x="348.524px" y="763.65px" style="font-family:'Lato-Italic', 'Lato', sans-serif;font-style:italic;font-size:100px;">Interstellar W<tspan x="907.324px " y="763.65px ">r</tspan>iter for MD<tspan x="1388.674px " y="763.65px ">/</tspan>MD<tspan x="1574.074px " y="763.65px ">X</tspan></text><g transform="matrix(41.666667,0,0,41.666667,1343.077735,889.440131)"></g><text x="639.119px" y="889.44px" style="font-family:'HelveticaNeue-LightItalic', 'Helvetica Neue';font-weight:300;font-style:italic;font-size:41.667px;">Tu compañero galáctico para MD/MDX</text><rect x="0" y="0" width="1920" height="55.268" style="fill:#ebebeb;"/><g><path d="M30.623,8.138c-3.392,-0.718 -6.929,-0.687 -10.274,0.205c-5.91,1.575 -14.747,6.177 -15.348,19.627c0,0 -0.498,16.794 19.921,19.594c0,0 10.594,1.308 17.452,-7.363c0,0 0.827,-0.822 -0.243,-1.689c0,0 -0.924,-1.004 -2.092,0.183c0,0 -7.734,6.389 -16.927,1.826c0,0 -9.437,-4.244 -8.464,-14.148c0,0 0.827,-11.82 13.766,-13.326c0,0 6.615,-0.684 12.161,3.605c0,0 0.778,0.684 1.654,-0.365c0,0 0.973,-0.73 0,-1.643c0,0 -3.304,-4.747 -11.605,-6.505" style="fill:#262261;fill-rule:nonzero;"/><path d="M29.179,19.067c-1.491,-0.316 -3.045,-0.302 -4.514,0.09c-2.597,0.692 -6.48,2.714 -6.744,8.624c0,0 -0.219,7.38 8.753,8.61c0,0 4.655,0.575 7.669,-3.235c0,0 0.363,-0.361 -0.107,-0.742c0,0 -0.406,-0.441 -0.919,0.08c0,0 -3.398,2.807 -7.438,0.802c0,0 -4.146,-1.865 -3.719,-6.217c0,0 0.363,-5.194 6.048,-5.856c0,0 2.907,-0.301 5.343,1.584c0,0 0.342,0.301 0.727,-0.16c0,0 0.427,-0.321 0,-0.722c0,0 -1.452,-2.086 -5.099,-2.858" style="fill:#1375bc;fill-rule:nonzero;"/><path d="M27.422,14.26c2.327,-0.493 4.753,-0.471 7.048,0.14c4.054,1.08 10.117,4.238 10.529,13.464c0,0 0.342,11.522 -13.666,13.442c0,0 -7.268,0.897 -11.973,-5.051c0,0 -0.567,-0.563 0.167,-1.158c0,0 0.634,-0.689 1.435,0.125c0,0 5.306,4.383 11.613,1.252c0,0 6.474,-2.912 5.806,-9.706c0,0 -0.567,-8.109 -9.443,-9.142c0,0 -4.538,-0.47 -8.343,2.473c0,0 -0.534,0.47 -1.135,-0.251c0,0 -0.667,-0.501 0,-1.127c0,0 2.266,-3.257 7.962,-4.463" style="fill:#be1e2d;fill-rule:nonzero;"/><path d="M27.947,22.666c0.864,-0.183 1.766,-0.175 2.618,0.052c1.506,0.401 3.758,1.574 3.911,5.002c0,0 0.127,4.28 -5.076,4.993c0,0 -2.7,0.333 -4.448,-1.876c0,0 -0.211,-0.209 0.062,-0.43c0,0 0.235,-0.256 0.533,0.047c0,0 1.971,1.628 4.314,0.465c0,0 2.405,-1.081 2.157,-3.605c0,0 -0.211,-3.012 -3.508,-3.396c0,0 -1.686,-0.174 -3.099,0.919c0,0 -0.198,0.174 -0.421,-0.093c0,0 -0.248,-0.186 0,-0.419c0,0 0.842,-1.21 2.957,-1.658" style="fill:#f7931d;fill-rule:nonzero;"/></g><g transform="matrix(25,0,0,25,400.063674,36.5588)"></g><text x="50.889px" y="36.559px" style="font-family:'HelveticaNeue-Medium', 'Helvetica Neue', sans-serif;font-weight:500;font-size:25px;">Interstellar W<tspan x="203.264px " y="36.559px ">r</tspan>iter for MD/MDX</text></svg>