<?xml version="1.0" encoding="UTF-8" standalone="no"?><!DOCTYPE svg PUBLIC "-//W3C//DTD SVG 1.1//EN" "http://www.w3.org/Graphics/SVG/1.1/DTD/svg11.dtd"><svg width="100%" height="100%" viewBox="0 0 1600 1600" version="1.1" xmlns="http://www.w3.org/2000/svg" xmlns:xlink="http://www.w3.org/1999/xlink" xml:space="preserve" xmlns:serif="http://www.serif.com/" style="fill-rule:evenodd;clip-rule:evenodd;stroke-linejoin:round;stroke-miterlimit:2;"><g><path d="M515.811,468.726c-12.691,-9.144 -36.763,-33.601 -92.323,-31.84c-35.083,1.112 -63.482,18.651 -77.476,31.089c-41.82,37.17 -42.458,82.149 -43.199,87.032c-1.825,12.034 -27.698,-6.196 -37.568,-25.904c-7.642,-15.26 -6.723,-16.148 -6.723,-358.79c0,-34.441 -9.624,-99.878 42.719,-116.537c12.986,-4.133 13.217,-3.669 503.447,-3.669c115.467,0 147.443,-6.712 168.266,36.071c7.485,15.379 6.574,16.211 6.574,337.26c0,136.862 1.084,140.599 -5.99,141.456c-0.535,0.065 -405.618,0.15 -409.611,-0.064c-15.011,-0.801 10.337,-38.705 -48.116,-96.104Z" style="fill-opacity:1;"/><path d="M384.403,1215.572c10.822,15.182 9.258,16.82 9.258,157.866c0,156.666 2.956,162.603 -16.761,172.511c-15.8,7.94 -179.513,2.521 -287.84,3.944c-46.15,0.606 -38.924,-25.418 -38.924,-129.58c-0,-190.833 -1.257,-192.566 7.889,-202.937c14.503,-16.445 38.192,-9.677 87.277,-11.234c7.692,-0.244 9.138,2.204 9.173,7.925c0.549,90.859 -8.658,128.22 34.573,128.984c74.307,1.313 99.58,2.662 100.278,-35.234c1.783,-96.878 -1.467,-101.142 5.776,-101.404c5.26,-0.191 37.753,-1.367 65.796,-0.229c14.825,0.602 21.948,8.28 23.504,9.388Z" style="fill-opacity:1;"/><path d="M962.528,1215.572c10.822,15.182 9.258,16.82 9.258,157.866c0,156.666 2.956,162.603 -16.761,172.511c-15.8,7.94 -179.513,2.521 -287.84,3.944c-46.15,0.606 -38.924,-25.418 -38.924,-129.58c-0,-190.833 -1.257,-192.566 7.889,-202.937c14.503,-16.445 38.192,-9.677 87.277,-11.234c7.692,-0.244 9.138,2.204 9.173,7.925c0.549,90.859 -8.658,128.22 34.573,128.984c74.307,1.313 99.58,2.662 100.278,-35.234c1.783,-96.878 -1.467,-101.142 5.776,-101.404c5.26,-0.191 37.753,-1.367 65.796,-0.229c14.825,0.602 21.948,8.28 23.504,9.388Z" style="fill-opacity:1;"/><path d="M1540.653,1215.572c10.822,15.182 9.258,16.82 9.258,157.866c-0,156.666 2.956,162.603 -16.761,172.511c-15.8,7.94 -179.513,2.521 -287.84,3.944c-46.15,0.606 -38.924,-25.418 -38.924,-129.58c0,-190.833 -1.257,-192.566 7.889,-202.937c14.503,-16.445 38.192,-9.677 87.277,-11.234c7.692,-0.244 9.138,2.204 9.173,7.925c0.549,90.859 -8.658,128.22 34.573,128.984c74.307,1.313 99.58,2.662 100.278,-35.234c1.783,-96.878 -1.467,-101.142 5.776,-101.404c5.26,-0.191 37.753,-1.367 65.796,-0.229c14.825,0.602 21.948,8.28 23.504,9.388Z" style="fill-opacity:1;"/><path d="M218.73,884.228c1.997,-1.669 8.944,-9.323 20.665,-12.847c21.37,-6.424 538.404,1.682 543.703,-3.961c3.012,-3.208 0.597,-188.956 1.492,-228.479c0.239,-10.557 11.26,-19.678 23.596,-12.976c7.476,4.062 7.54,26.347 7.547,28.723c0.594,208.369 -4.04,213.322 4.72,214.648c2.031,0.307 321.87,0.307 349.859,0.307c190.942,-0 194.993,-2.644 211.928,16.781c12.805,14.688 13.295,16.835 11.37,243.316c-0.19,22.415 -31.083,26.903 -31.216,-3.182c-0.935,-210.905 3.272,-213.252 -5.226,-221.169c-4.234,-3.944 -5.003,-4.711 -214.981,-4.711c-319.319,-0 -319.326,-0.647 -322.077,-0.032c-5.401,1.207 -4.593,3.915 -4.593,147.792c0,75.2 4.738,105.86 -20.605,98.037c-12.48,-3.852 -10.647,-8.824 -10.647,-163.662c-0,-76.799 2.083,-82.222 -7.679,-82.314c-1.522,-0.014 -512.596,-0.352 -518.787,-0.276c-24.573,0.302 -20.408,12.356 -20.408,113.84c-0,123.725 2.73,132.106 -14.066,133.203c-20.861,1.362 -16.97,-16.298 -16.97,-98.828c0,-142.166 -2.068,-144.231 12.373,-164.21Z" style="fill-opacity:1;"/><path d="M1081.357,471.88c-48.845,46.384 -33.709,92.35 -45.283,92.949c-2.022,0.105 -23.591,1.222 -25.003,-3.932c-0.381,-1.392 -1.127,-421.723 0.395,-424.705c1.807,-3.538 2.952,-3.019 83.847,-2.96c15.059,0.011 22.399,-6.112 22.445,8.949c0.526,174.987 -7.248,193.053 31.428,220.811c33.281,23.885 135.641,8.987 186.837,12.985c6.379,0.498 5.444,4.09 5.417,122.461c-0.001,5.79 -0.012,49.973 -36.812,62.31c-13.875,4.651 -0.729,-33.703 -35.616,-76.892c-4.592,-5.685 -85.662,-97.653 -187.654,-11.975Z" style="fill-opacity:1;"/><path d="M500.033,496.805c90.623,104.381 -58.914,227.62 -144.627,129.171c-67.09,-77.06 33.8,-221.741 144.627,-129.171l-49.719,43.779c-0.613,-0.312 -16.62,-13.669 -36.495,-1.9c-5.065,2.999 -13.954,11.986 -14.117,25.404c-0.66,54.396 95.462,30.014 50.612,-23.504l49.719,-43.779Z" style="fill-opacity:1;"/><path d="M1099.948,496.789c111.295,-92.56 211.487,52.267 144.626,129.172c-85.591,98.449 -235.277,-24.723 -144.626,-129.172l49.726,43.781c-44.87,53.463 51.258,77.983 50.616,23.517c-0.153,-12.995 -8.684,-22.17 -14.116,-25.392c-19.856,-11.778 -35.86,1.549 -36.5,1.875l-49.726,-43.781Z" style="fill-opacity:1;"/><path d="M1228.591,149.888c22.777,20.594 20.711,22.501 86.91,141.501c8.233,14.799 33.632,53.171 17.276,53.28c-146.808,0.977 -147.239,1.575 -158.827,-3.645c-29.342,-13.217 -24.944,-22.651 -24.944,-176.963c0,-2.467 -2.878,-30.769 5.704,-31.041c46.467,-1.476 56.497,6.075 73.88,16.867Z" style="fill-opacity:1;"/><path d="M1357.812,1206.357c47.348,0 56.421,-2.621 56.491,7.701c0.618,91.066 3.933,94.239 -3.344,96.932c-1.221,0.452 -64.31,2.785 -67.445,-1.175c-4.755,-6.007 -2.258,-7.034 -1.602,-95.758c0.08,-10.786 4.946,-7.195 15.899,-7.7Z"/><path d="M201.562,1206.357c47.402,0 56.47,-2.618 56.54,7.699c0.623,91.098 3.903,94.287 -3.386,96.949c-1.132,0.413 -64.298,2.788 -67.426,-1.204c-4.725,-6.03 -2.226,-7.042 -1.578,-95.744c0.079,-10.863 4.979,-7.185 15.85,-7.701Z"/><path d="M779.687,1206.357c47.402,0 56.47,-2.618 56.54,7.699c0.623,91.098 3.903,94.287 -3.386,96.949c-1.132,0.413 -64.298,2.788 -67.426,-1.204c-4.725,-6.03 -2.226,-7.042 -1.578,-95.744c0.079,-10.863 4.979,-7.185 15.85,-7.701Z"/></g></svg>