<svg xmlns="http://www.w3.org/2000/svg" viewBox="0 0 689.179 732.531" class="injected-svg" xmlns:xlink="http://www.w3.org/1999/xlink" role="img"><g transform="translate(-3768.511 3546.938)"><path d="M336.884,139.2c16.523-.8,33.306,1.784,48.214,9.088,7.074,3.467,23.367,10.535,25.809,18.508,1.785,5.829-.691,10.527-3.463,15.479.7,6.352,2.924,12.172,4.559,18.311-4.505,18.549-5.036,14.862,2.818,32.494a25.587,25.587,0,0,1,2.574,8.444,5.762,5.762,0,0,1-1.406,4.556c-2.525,2.689-6.274,2.5-9.65,2.5.176,4.45.777,9.622-.395,13.972-1.014,3.767-2.621,5.5-5.922,7.423-.088,5.016.312,11.457-3.418,15.358a9.995,9.995,0,0,1-5.8,2.818c-5.868.947-20.663-.112-27.281-.158-3.04,7.2-6.253,14.173-9.9,21.084,3.2,5.459,7.7,10.029,10.84,15.588,5.73,10.141,12.254,31.774,15.146,43.45,2.879,11.624,5.412,23.349,8.128,35.013,1.409,6.051,3.444,12.338,4.222,18.483.288,2.274.727,6.036-.661,8.052-1.858,2.7-6.057,4.655-9.026,5.96-5.265,2.315-11.02,3.764-16.477,5.579-10.553,3.511-21.228,7.655-32.163,9.758a12.111,12.111,0,0,1-1.076,3.792,4.414,4.414,0,0,1-2.867,2.7,4.577,4.577,0,0,1-4.186-1.388c-4.868-5.044-7.661-14.441-10.3-20.847q-8.551-20.943-16.724-42.041c-2.285-5.849-4.2-12.129-6.792-17.823a4.632,4.632,0,0,0-1.977-2.242,3.472,3.472,0,0,0-2.831.388,4.17,4.17,0,0,0-.709,2.275c-.2,7.234,24.882,66.515,29.693,76.217,1.35,2.721,2.979,6.023,5.223,8.11,2.421,2.252,6.761,1.408,9.8,1.25,2.856,4.994,5.061,10.517,7.636,15.679q6.875,13.816,14.879,27.024c3.693,6.11,8.7,11.185,12.629,17.1l.3.46c.067,6.6.17,12.808,1.56,19.3q51.942,4.993,103.771,11.08,16.172,1.895,32.281,4.269c10.864,1.5,22.232,2.877,32.691,6.311,10.788,3.543,17.148,10.365,22.159,20.39a71.444,71.444,0,0,1,6.132,18.322c2.382,12.018,3.689,24.329,5.4,36.461l8.191,57.511c3.976,27.869,9.449,55.575,12.963,83.51.312,2.479,1.353,8.269.2,10.527-1.451,2.83-5.6,3.468-8.371,3.978,7.525,8.673,16.282,15.484,25.7,21.947,10.965,7.457,23.458,16.212,36.492,19.277,3.417.8,7.041,1.053,10.519,1.544,5.038.711,9.847,1.888,12.959,6.277,2.5,3.523,4.035,8.871,3.113,13.166a10.95,10.95,0,0,1-5.532,6.912c-14.919,8.779-55.092,8.138-72.329,5.884-9.084-1.188-17.928-3.475-26.8-5.7-1.523,1.886-3.357,4.764-5.631,5.738-6.059,2.6-33.715,2.322-39.908-.34-10.189-4.381-5.435-21.7-4.23-30.053.938-6.508,1.843-13.079,2.437-19.626.234-2.581.773-6.515-.19-8.935a6.341,6.341,0,0,1-3.2-1.253c-.717-.69-20.759-121.782-21.86-129.016q-3.516-22.622-5.908-45.4c-9.693-.415-19.557-.2-29.216-.945-3.97-.305-7.76-1.8-11.761-1.847-17.16-.225-34.343.35-51.5.428L318.7,631.07l-30.708-.091c-6.981-.016-14.147.264-21.09-.531-2.939-.337-4.523-.719-6.87-2.577-13.738-10.877-15.555-32.059-17.553-48.162.917-1.784,1.873-3.575,2.686-5.408,1.737-3.915,1.456-8.1,1.281-12.282-.379-9.1-1.762-18.287-2.886-27.333q-3.657-28.938-8.489-57.709c-3.268-19.9-5.825-40.251-10.069-59.953a143.183,143.183,0,0,0-5.846-19.773c4.755-24.088,13.5-55.223,26.938-76a122.639,122.639,0,0,1,21.148-23.985c7.036-6.261,20.855-12.492,25.651-17.672,6.158-6.648,6.763-20.087,6.49-28.574a22.192,22.192,0,0,1-3.96-4.346c-5.158-8.26-13.5-35.306-14.445-45.144-1.347-13.985,1.722-30.327,10.931-41.322,4.945-5.9,10.148-8.509,16.841-11.847C318.465,143.518,325.879,140.11,336.884,139.2Z" transform="translate(3602 -3686)" fill="currentColor"></path><path d="M558.611,211.6c11.19-.728,22.761.037,34,.083l66.928.085,81.631-.1c15.67-.074,31.71-.921,47.324-.053a13.208,13.208,0,0,1,12.965,12.929c.578,9.66-1.018,19.846-1.907,29.485l-4.28,46.5-6.149,67.244c-1.1,11.949-1.546,24.463-3.656,36.269a13.113,13.113,0,0,1-3.553,7.1c-2.2,2.244-6.557,2.809-9.6,3.117-8.838.895-18.381-.037-27.3-.139L695.587,414c-.346,15.307-.085,30.674-.1,45.989,1.284,2.808,21.187-1.3,25.875,1.895a6.366,6.366,0,0,1,2.492,4.17c.48,2.494.536,10.921-1.3,12.607-1.242,1.142-4.211,1.283-5.8,1.373-9.494.534-19.314-.083-28.836-.082l-64.211-.062c.133-4.729-.917-14.21,2.361-17.882a6.036,6.036,0,0,1,3.635-1.779c3.67-.562,19.045.393,24.151.439q-.111-23.338.019-46.677l-75.209-.007c-8.035.018-36.145,1.575-41.82-.375a8.149,8.149,0,0,1-4.906-4.273,19.2,19.2,0,0,1-1.383-8.75c.526-16.2,3.206-34.309,4.724-50.713l7.876-82.644c1-10.24,2.559-39.427,6.018-47.659C550.951,215.341,554.533,213.229,558.611,211.6Z" transform="translate(3602 -3686)" fill="currentColor"></path><path d="M187.386,376.674c.264-.022.529-.048.793-.065,6.45-.422,13.246,1.41,18.06,5.831,4.152,3.813,6.539,9.449,8.209,14.742,4.323,13.7,6.205,29.972,8.8,44.262,4.858,26.743,8.808,53.42,12.419,80.358,2.245,16.755,4.805,33.45,5.71,50.345-7,4.709-15.473,8.579-22.953,12.559.258,8.283,1.3,16.592,1.776,24.874.567,9.961.247,20.356,2.152,30.165.625,3.215,1.657,8.508,4.485,10.4,2.209-1.969,2.7-6.033,4.721-8.422,3.513-4.152,8.952-4.925,14.073-5.206,10.326-.567,20.841-.193,31.185-.187q27.017-.022,54.032.241c9.587.123,19.176.582,28.763.575l56.888-.374c10.056-.124,20.732-1.051,30.734-.158a17.74,17.74,0,0,1,10.838,4.366c4.412,4.133,5.907,10.244,6.022,16.092.127,6.434-.783,15.089-5.62,19.769a9.336,9.336,0,0,1-4.232,2.429c-10.649,2.347-25.623,1.253-36.742,1.243l-60.034-.074-1,97.7c14.1,3.245,98.627,30.575,106.3,37.717,4.235,3.943,3.358,10.947,3.351,16.216a30.306,30.306,0,0,1,5.9,4.215,20.223,20.223,0,0,1,6.248,14.52,22.182,22.182,0,0,1-6.726,15.633,18.875,18.875,0,0,1-14.372,5.111,20.163,20.163,0,0,1-13.988-6.771c-5.509-6.254-6.786-17.159-2.177-24.323,2.159-3.356,7.493-5.71,7.692-10.014-2.243-2.144-47.539-11.041-54.364-12.532-8.767-1.979-32.073-9.022-39.474-8.214-1.459,3.056-1.783,19.95-1.918,24.343a38.472,38.472,0,0,1,4.4,3.435,18.717,18.717,0,0,1,5.742,13.962,20.443,20.443,0,0,1-21.522,19.6,16.42,16.42,0,0,1-11.846-6.17,21.768,21.768,0,0,1-4.105-16.206c1.11-7.476,5.579-11.56,11.234-15.9-2.076-.559-4.193-1-6.287-1.492-.178-7.387.314-14.811.292-22.209C316.364,813,301.656,816.407,287,819.608c-7.741,1.69-41.909,7.872-46.194,10.316-.727,3.963,6.368,7.649,7.822,11.332.079.2.144.407.219.609,1.758,4.746,2.436,9.39,1.005,14.332a19.845,19.845,0,0,1-9.5,12.1,20.981,20.981,0,0,1-16.216,1.476,19.6,19.6,0,0,1-11.78-9.75c-2.412-4.833-3.038-11.566-1.1-16.667,2.189-5.756,6.826-9.5,12.223-12.023-.153-4.345-.983-10.09,1.2-14.006,1.607-2.887,5.33-4.941,8.194-6.447,5.715-3.007,12.584-4.807,18.644-7.139a783.392,783.392,0,0,1,78.5-25.883l-.1-97.334-51.674.092c-11.514.019-36.265,1.274-46.243-1.956-4.873-1.578-13.9-8.461-18.284-11.617a20.494,20.494,0,0,1-4.424-3.872c-4.1-5.349-5.7-15.616-7-22.188-1.436-7.277-1.36-15.054-2.2-22.444-3.474-30.455-4.841-61.163-8.94-91.541-4.206-31.168-11.189-62.157-17.517-92.953-2.157-10.5-4.8-21.076-6.488-31.656-.958-5.988-1.321-11.788,2.551-16.885C173.943,379.912,180.694,377.561,187.386,376.674Z" transform="translate(3602 -3686)" fill="currentColor"></path><path d="M601.673,472.21c1.893-.177,3.872-.075,5.776-.088.365,5.276.029,10.72-.033,16.013,32.07-.548,64.21.157,96.285.286l151.806.113c-.012,10.21.245,20.414.169,30.628q-26.807-.094-53.611.263.646,69.231.408,138.466l.024,211.051-23.7.011.058-88.7-.059-260.368q-45.556-.537-91.117-.44c-29.79-.029-59.61-.313-89.4.013-17.461.192-153.793,5.559-157.93,2.916a3.015,3.015,0,0,1-1.475-2.665,5.9,5.9,0,0,1,1.52-3.664,19.646,19.646,0,0,1,5.3-4.026c8.8-5.006,18.436-9.007,27.605-13.325,6.352-2.99,12.543-7.013,19.424-8.626,3.77-.883,7.88-.853,11.74-1.151a73.316,73.316,0,0,0,15.718-2.925,127.908,127.908,0,0,0,12.87-4.864c4.269-1.918,8.483-4.579,13.126-5.381,6.653-1.151,13.98-.989,20.739-1.355Z" transform="translate(3602 -3686)" fill="currentColor"></path><path d="M391.112,437.983l.613.343c3.746,8.066,7.359,17.93,8.892,26.684,8.278-.964,16.8-1.076,25.127-1.606,18.732-1.193,36.978-2.982,55.225-7.573a210.5,210.5,0,0,0,28.268-8.992c4.053-1.664,8.008-5.1,12.256-6,7.264-1.544,25.911.512,32.045,4.7,3.977,2.718,19.532,15.492,19.94,19.666a2.218,2.218,0,0,1-.782,1.665c-3.989,3.816-22.135,2.06-28.265,2.735-12.3,1.355-21.385,13.874-38.413,14.417-4.52.092-9.942-.35-14.348.69-7.065,1.67-14.214,6.136-20.91,9.069q-20.012,8.868-40.449,16.727c-12.286,4.717-39.3,16.348-51.853,10.3-5.048-2.432-23.242-26.082-26.814-31.891-2.587-4.207-4.531-8.889-6.737-13.3-3.212-6.43-6.954-12.878-9.318-19.668,6.348-2.157,13.17-3.148,19.635-5A317.533,317.533,0,0,0,391.112,437.983Z" transform="translate(3602 -3686)" fill="currentColor"></path></g></svg>