<svg width="32" height="32" viewBox="0 0 32 32" fill="none" xmlns="http://www.w3.org/2000/svg">
<path d="M15 4.75C15 5.16421 15.3358 5.5 15.75 5.5C16.1642 5.5 16.5 5.16421 16.5 4.75V2.75C16.5 2.33579 16.1642 2 15.75 2C15.3358 2 15 2.33579 15 2.75V4.75Z" fill="#1D1D1B"/>
<path d="M10.6001 6.82994C10.2414 7.03705 9.78269 6.91414 9.57558 6.55542L8.60058 4.86667C8.39347 4.50795 8.51638 4.04926 8.8751 3.84215C9.23382 3.63504 9.69251 3.75795 9.89962 4.11667L10.8746 5.80542C11.0817 6.16414 10.9588 6.62283 10.6001 6.82994Z" fill="#1D1D1B"/>
<path d="M5.80542 10.8746C6.16414 11.0817 6.62283 10.9588 6.82994 10.6001C7.03705 10.2414 6.91414 9.78269 6.55542 9.57558L4.86667 8.60058C4.50795 8.39347 4.04926 8.51638 3.84215 8.8751C3.63504 9.23382 3.75795 9.69251 4.11667 9.89962L5.80542 10.8746Z" fill="#1D1D1B"/>
<path d="M14.9872 13.3882C15.0635 12.9811 14.7953 12.5892 14.3882 12.5128C13.9811 12.4365 13.5892 12.7047 13.5128 13.1118L12.0128 21.1118C11.9365 21.5189 12.2047 21.9108 12.6118 21.9872C13.0189 22.0635 13.4108 21.7953 13.4872 21.3882L14.9872 13.3882Z" fill="#1D1D1B"/>
<path fill-rule="evenodd" clip-rule="evenodd" d="M13.3896 9C12.0787 9 10.9501 9.92526 10.693 11.2107L8.13515 24H7.75C7.33579 24 7 24.3358 7 24.75C7 25.1642 7.33579 25.5 7.75 25.5H23.75C24.1642 25.5 24.5 25.1642 24.5 24.75C24.5 24.3358 24.1642 24 23.75 24H23.3649L20.807 11.2107C20.5499 9.92526 19.4213 9 18.1104 9H13.3896ZM19.3361 11.5049L21.8351 24H9.66485L12.1639 11.5049C12.2807 10.9206 12.7938 10.5 13.3896 10.5H18.1104C18.7062 10.5 19.2193 10.9206 19.3361 11.5049Z" fill="#1D1D1B"/>
<path d="M28.75 16.5C29.1642 16.5 29.5 16.1642 29.5 15.75C29.5 15.3358 29.1642 15 28.75 15H26.75C26.3358 15 26 15.3358 26 15.75C26 16.1642 26.3358 16.5 26.75 16.5H28.75Z" fill="#1D1D1B"/>
<path d="M5.5 15.75C5.5 16.1642 5.16421 16.5 4.75 16.5H2.75C2.33579 16.5 2 16.1642 2 15.75C2 15.3358 2.33579 15 2.75 15H4.75C5.16421 15 5.5 15.3358 5.5 15.75Z" fill="#1D1D1B"/>
<path d="M20.8999 6.82994C20.5412 6.62283 20.4183 6.16414 20.6254 5.80542L21.6004 4.11667C21.8075 3.75795 22.2662 3.63504 22.6249 3.84215C22.9836 4.04926 23.1065 4.50795 22.8994 4.86667L21.9244 6.55542C21.7173 6.91414 21.2586 7.03705 20.8999 6.82994Z" fill="#1D1D1B"/>
<path d="M24.9446 9.57558C24.5859 9.78269 24.463 10.2414 24.6701 10.6001C24.8772 10.9588 25.3359 11.0817 25.6946 10.8746L27.3833 9.89962C27.7421 9.69251 27.865 9.23382 27.6578 8.8751C27.4507 8.51638 26.9921 8.39347 26.6333 8.60058L24.9446 9.57558Z" fill="#1D1D1B"/>
</svg>
