<svg width="32" height="32" viewBox="0 0 32 32" fill="none" xmlns="http://www.w3.org/2000/svg">
<path fill-rule="evenodd" clip-rule="evenodd" d="M12 14.9517V10.7853C12 9.80036 12.5267 8.89067 13.3809 8.40032L19.3809 4.95587C20.2287 4.46913 21.2713 4.46914 22.1191 4.95587L28.1191 8.40032C28.9733 8.89067 29.5 9.80036 29.5 10.7853V18.1132C29.5 20.7526 27.9307 22.7586 26.2418 24.1542C24.5462 25.5553 22.6207 26.436 21.6511 26.8289C21.0694 27.0646 20.4306 27.0646 19.8489 26.8289C18.8793 26.436 16.9538 25.5553 15.2582 24.1542C13.5693 22.7586 12 20.7526 12 18.1132V16.4517L2.75 16.4517C2.33579 16.4517 2 16.1159 2 15.7017C2 15.2875 2.33579 14.9517 2.75 14.9517L12 14.9517ZM20.1277 6.25675C20.5131 6.03551 20.9869 6.03551 21.3723 6.25675L27.3723 9.7012C27.7606 9.92408 28 10.3376 28 10.7853V18.1132C28 20.1083 26.8181 21.732 25.2863 22.9979C23.7611 24.2582 21.9964 25.0705 21.0878 25.4386C20.8674 25.528 20.6326 25.528 20.4122 25.4386C19.5036 25.0705 17.7389 24.2582 16.2137 22.9979C14.6819 21.732 13.5 20.1083 13.5 18.1132V16.4517H20.9393L19.2197 18.1713C18.9268 18.4642 18.9268 18.9391 19.2197 19.232C19.5126 19.5249 19.9874 19.5249 20.2803 19.232L23.2803 16.232C23.5732 15.9391 23.5732 15.4642 23.2803 15.1713L20.2803 12.1713C19.9874 11.8785 19.5126 11.8785 19.2197 12.1713C18.9268 12.4642 18.9268 12.9391 19.2197 13.232L20.9393 14.9517H13.5V10.7853C13.5 10.3376 13.7394 9.92408 14.1277 9.7012L20.1277 6.25675Z" fill="#1D1D1B"/>
<path d="M2 8.70168C2 8.28747 2.33579 7.95168 2.75 7.95168L7.93934 7.95168L6.21967 6.23201C5.92678 5.93912 5.92678 5.46424 6.21967 5.17135C6.51256 4.87846 6.98744 4.87846 7.28033 5.17135L10.2803 8.17135C10.421 8.312 10.5 8.50277 10.5 8.70168C10.5 8.90059 10.421 9.09136 10.2803 9.23201L7.28033 12.232C6.98744 12.5249 6.51256 12.5249 6.21967 12.232C5.92678 11.9391 5.92678 11.4642 6.21967 11.1714L7.93934 9.45168L2.75 9.45168C2.33579 9.45168 2 9.11589 2 8.70168Z" fill="#1D1D1B"/>
<path d="M2.75 21.9517C2.33579 21.9517 2 22.2875 2 22.7017C2 23.1159 2.33579 23.4517 2.75 23.4517H7.93934L6.21967 25.1714C5.92678 25.4642 5.92678 25.9391 6.21967 26.232C6.51256 26.5249 6.98744 26.5249 7.28033 26.232L10.2803 23.232C10.421 23.0914 10.5 22.9006 10.5 22.7017C10.5 22.5028 10.421 22.312 10.2803 22.1714L7.28033 19.1714C6.98744 18.8785 6.51256 18.8785 6.21967 19.1714C5.92678 19.4642 5.92678 19.9391 6.21967 20.232L7.93934 21.9517H2.75Z" fill="#1D1D1B"/>
</svg>
