<svg width="32" height="32" viewBox="0 0 32 32" fill="none" xmlns="http://www.w3.org/2000/svg">
<path d="M22.75 16.5C23.4404 16.5 24 15.9404 24 15.25C24 14.5596 23.4404 14 22.75 14C22.0596 14 21.5 14.5596 21.5 15.25C21.5 15.9404 22.0596 16.5 22.75 16.5Z" fill="#1D1D1B"/>
<path fill-rule="evenodd" clip-rule="evenodd" d="M15.75 1.5C14.2312 1.5 13 2.73122 13 4.25C13 5.03176 13.3262 5.73732 13.8499 6.23802L9.59278 12.6315C9.32719 12.5461 9.04398 12.5 8.75 12.5C7.23122 12.5 6 13.7312 6 15.25C6 16.1878 6.46942 17.016 7.18611 17.5123L4.96517 23.5083C4.89417 23.5028 4.82241 23.5 4.75 23.5C3.23122 23.5 2 24.7312 2 26.25C2 27.7688 3.23122 29 4.75 29C6.26878 29 7.5 27.7688 7.5 26.25C7.5 25.3377 7.0558 24.5292 6.3719 24.029L8.60644 17.9963C8.64049 17.9981 8.67472 17.9992 8.70909 17.9997L10.7017 23.977C9.97623 24.4721 9.5 25.3054 9.5 26.25C9.5 27.7688 10.7312 29 12.25 29C13.7688 29 15 27.7688 15 26.25C15 24.7312 13.7688 23.5 12.25 23.5C12.208 23.5 12.1663 23.5009 12.1248 23.5028L10.1607 17.6111C10.9629 17.1307 11.5 16.2531 11.5 15.25C11.5 14.5681 11.2518 13.9442 10.8408 13.4636L15.1835 6.9416C15.3663 6.97987 15.5558 7 15.75 7C15.9444 7 16.1341 6.97982 16.3172 6.94145L18.9663 10.9202C17.9386 11.819 17.2337 13.0779 17.0485 14.5H16.25C15.8358 14.5 15.5 14.8358 15.5 15.25C15.5 15.6642 15.8358 16 16.25 16H17.0485C17.2956 17.8969 18.4672 19.5033 20.0964 20.3524L18.9492 23.5071C18.8834 23.5024 18.817 23.5 18.75 23.5C17.2312 23.5 16 24.7312 16 26.25C16 27.7688 17.2312 29 18.75 29C20.2688 29 21.5 27.7688 21.5 26.25C21.5 25.332 21.0502 24.519 20.3589 24.0195L21.506 20.8651C21.6682 20.9009 21.833 20.9298 22 20.9515V21.75C22 22.1642 22.3358 22.5 22.75 22.5C23.1642 22.5 23.5 22.1642 23.5 21.75V20.9515C23.667 20.9298 23.8317 20.9009 23.9938 20.8651L25.1409 24.0197C24.4498 24.5192 24 25.3321 24 26.25C24 27.7688 25.2312 29 26.75 29C28.2688 29 29.5 27.7688 29.5 26.25C29.5 24.7312 28.2688 23.5 26.75 23.5C26.683 23.5 26.6165 23.5024 26.5506 23.5071L25.4035 20.3525C27.0328 19.5034 28.2044 17.897 28.4515 16H29.25C29.6642 16 30 15.6642 30 15.25C30 14.8358 29.6642 14.5 29.25 14.5H28.4515C28.116 11.9242 26.0758 9.884 23.5 9.54847V8.75C23.5 8.33579 23.1642 8 22.75 8C22.3358 8 22 8.33579 22 8.75V9.54847C21.3666 9.63098 20.7655 9.81658 20.2143 10.0879L17.6506 6.23755C18.174 5.73689 18.5 5.03151 18.5 4.25C18.5 2.73122 17.2688 1.5 15.75 1.5ZM14.5 4.25C14.5 3.55964 15.0596 3 15.75 3C16.4404 3 17 3.55964 17 4.25C17 4.94036 16.4404 5.5 15.75 5.5C15.0596 5.5 14.5 4.94036 14.5 4.25ZM22 11.066C20.2539 11.3769 18.8769 12.7539 18.566 14.5H18.75C19.1642 14.5 19.5 14.8358 19.5 15.25C19.5 15.6642 19.1642 16 18.75 16H18.566C18.8769 17.7461 20.2539 19.1231 22 19.434V19.25C22 18.8358 22.3358 18.5 22.75 18.5C23.1642 18.5 23.5 18.8358 23.5 19.25V19.434C25.2461 19.1231 26.6231 17.7461 26.934 16H26.75C26.3358 16 26 15.6642 26 15.25C26 14.8358 26.3358 14.5 26.75 14.5H26.934C26.6231 12.7539 25.2461 11.3769 23.5 11.066V11.25C23.5 11.6642 23.1642 12 22.75 12C22.3358 12 22 11.6642 22 11.25V11.066ZM8.75 14C8.05964 14 7.5 14.5596 7.5 15.25C7.5 15.9404 8.05964 16.5 8.75 16.5C9.44036 16.5 10 15.9404 10 15.25C10 14.5596 9.44036 14 8.75 14ZM3.5 26.25C3.5 25.5596 4.05964 25 4.75 25C5.44036 25 6 25.5596 6 26.25C6 26.9404 5.44036 27.5 4.75 27.5C4.05964 27.5 3.5 26.9404 3.5 26.25ZM18.75 25C18.0596 25 17.5 25.5596 17.5 26.25C17.5 26.9404 18.0596 27.5 18.75 27.5C19.4404 27.5 20 26.9404 20 26.25C20 25.5596 19.4404 25 18.75 25ZM11 26.25C11 25.5596 11.5596 25 12.25 25C12.9404 25 13.5 25.5596 13.5 26.25C13.5 26.9404 12.9404 27.5 12.25 27.5C11.5596 27.5 11 26.9404 11 26.25ZM26.75 25C26.0596 25 25.5 25.5596 25.5 26.25C25.5 26.9404 26.0596 27.5 26.75 27.5C27.4404 27.5 28 26.9404 28 26.25C28 25.5596 27.4404 25 26.75 25Z" fill="#1D1D1B"/>
</svg>
