<svg id="icons" xmlns="http://www.w3.org/2000/svg" xmlns:xlink="http://www.w3.org/1999/xlink" viewBox="0 0 56 62"><defs><style>.cls-1{fill:none;}.cls-2{clip-path:url(#clip-path);}.cls-3{fill:#fff;}.cls-4{fill:#00a88e;}</style><clipPath id="clip-path"><rect class="cls-1" width="56" height="62"/></clipPath></defs><title>k_Endpoint_Detection_and_Response</title><g id="Kaspersky_Industrial_CyberSecurity" data-name="Kaspersky Industrial CyberSecurity"><g class="cls-2"><g class="cls-2"><path class="cls-3" d="M28,25.25A5.75,5.75,0,1,0,33.75,31,5.75,5.75,0,0,0,28,25.25m0,10A4.25,4.25,0,1,1,32.25,31,4.25,4.25,0,0,1,28,35.25"/><path class="cls-3" d="M42,35.63c-2.577,0-6,3.5-6,3.5s3.423,3.5,6,3.5,6-3.5,6-3.5-3.38-3.5-6-3.5m0,6.291a2.75,2.75,0,1,1,2.62-2.747A2.672,2.672,0,0,1,42,41.921"/><path class="cls-3" d="M43.093,39.107A1.057,1.057,0,1,1,42.036,38a1.13,1.13,0,0,1,1.057,1.107"/><path class="cls-3" d="M28,29a2,2,0,1,1-2,2,2,2,0,0,1,2-2"/><path class="cls-3" d="M32.541,28.909l8.705-4.974-.5-.869-8.717,4.981a5.094,5.094,0,0,1,.508.862M23.89,33.852a4.994,4.994,0,0,1-.486-.874L16.25,37.067l.5.868Z"/><rect class="cls-3" x="13.018" y="36.089" width="1" height="6" transform="translate(-27.093 31.251) rotate(-59.999)"/><path class="cls-3" d="M13.5,35.614a3.5,3.5,0,1,0,3.5,3.5,3.5,3.5,0,0,0-3.5-3.5m0,6a2.5,2.5,0,1,1,2.5-2.5,2.5,2.5,0,0,1-2.5,2.5"/><path class="cls-3" d="M32.092,33.875l7.152,4.132.5-.865L32.583,33a5,5,0,0,1-.491.872m-8.626-4.984a4.979,4.979,0,0,1,.511-.859l-8.476-4.9L15,24Z"/><rect class="cls-3" x="27.5" y="36.5" width="1" height="11"/><rect class="cls-3" x="27.5" y="14.5" width="1" height="2.5"/><rect class="cls-3" x="27.5" y="23" width="1" height="3"/><rect class="cls-3" x="25.172" y="19.5" width="5.657" height="1" transform="translate(-5.941 25.657) rotate(-45)"/><rect class="cls-3" x="27.5" y="17.172" width="1" height="5.657" transform="translate(-5.941 25.657) rotate(-45)"/><path class="cls-3" d="M28,47a2,2,0,1,0,2,2,2,2,0,0,0-2-2m0,3a1,1,0,1,1,1-1,1,1,0,0,1-1,1"/><path class="cls-3" d="M42.5,20A2.5,2.5,0,1,0,45,22.5,2.5,2.5,0,0,0,42.5,20m0,4A1.5,1.5,0,1,1,44,22.5,1.5,1.5,0,0,1,42.5,24"/><path class="cls-3" d="M13.5,20A2.5,2.5,0,1,0,16,22.5,2.5,2.5,0,0,0,13.5,20m0,4A1.5,1.5,0,1,1,15,22.5,1.5,1.5,0,0,1,13.5,24"/><path class="cls-3" d="M28,11a2,2,0,1,0,2,2,2,2,0,0,0-2-2m0,3a1,1,0,1,1,1-1,1,1,0,0,1-1,1"/><path class="cls-4" d="M28,2a4.593,4.593,0,0,1,2.277.605l21.41,12.234A4.6,4.6,0,0,1,54,18.825V43.176a4.6,4.6,0,0,1-2.313,3.985L30.277,59.4a4.594,4.594,0,0,1-4.554,0L4.313,47.161A4.6,4.6,0,0,1,2,43.176V18.825a4.6,4.6,0,0,1,2.313-3.986L25.723,2.605A4.593,4.593,0,0,1,28,2m0-2a6.6,6.6,0,0,0-3.27.868L3.32,13.1A6.589,6.589,0,0,0,0,18.825V43.176A6.59,6.59,0,0,0,3.32,48.9L24.73,61.132a6.594,6.594,0,0,0,6.54,0L52.68,48.9A6.592,6.592,0,0,0,56,43.176V18.825A6.591,6.591,0,0,0,52.68,13.1L31.27.868A6.6,6.6,0,0,0,28,0"/></g></g></g></svg>