<?xml version="1.0" encoding="utf-8"?>
<!-- Generator: Adobe Illustrator 25.4.1, SVG Export Plug-In . SVG Version: 6.00 Build 0)  -->
<svg version="1.1" xmlns="http://www.w3.org/2000/svg" xmlns:xlink="http://www.w3.org/1999/xlink" x="0px" y="0px"
	 viewBox="0 0 56 62" style="enable-background:new 0 0 56 62;" xml:space="preserve">
<style type="text/css">
	.st0{display:none;}
	.st1{display:inline;fill:#FFFFFF;}
	.st2{display:inline;}
	.st3{clip-path:url(#SVGID_00000032612058265990822740000001745417906716465086_);}
	.st4{clip-path:url(#SVGID_00000137132867012192249330000011121369167319658124_);fill:#00A78E;}
	.st5{clip-path:url(#SVGID_00000137132867012192249330000011121369167319658124_);fill:#58595B;}
	.st6{clip-path:url(#SVGID_00000139257265742986716920000012575941130792440999_);}
	.st7{clip-path:url(#SVGID_00000032633991617179422840000013952733179173267584_);fill:#00A78E;}
	.st8{clip-path:url(#SVGID_00000032633991617179422840000013952733179173267584_);fill:#58595B;}
	.st9{clip-path:url(#SVGID_00000114058939975895023290000014862381070592502964_);}
	.st10{clip-path:url(#SVGID_00000110433610994092307770000012552847852837910424_);fill:#00A78E;}
	.st11{clip-path:url(#SVGID_00000110433610994092307770000012552847852837910424_);fill:#58595B;}
	.st12{clip-path:url(#SVGID_00000067238159066337801080000002726329080219412149_);}
	.st13{clip-path:url(#SVGID_00000110467244426681832600000011978735432666508972_);fill:#00A78E;}
	.st14{clip-path:url(#SVGID_00000110467244426681832600000011978735432666508972_);fill:#FFFFFF;}
	.st15{clip-path:url(#SVGID_00000130617670122566378970000001684236490792604803_);}
	.st16{clip-path:url(#SVGID_00000178185328710485543610000004705046176467943065_);fill:#00A78E;}
	.st17{clip-path:url(#SVGID_00000178185328710485543610000004705046176467943065_);fill:#FFFFFF;}
	.st18{clip-path:url(#SVGID_00000008129778546568127430000009683394354582482058_);}
	.st19{clip-path:url(#SVGID_00000159436276993931088660000015392333446816535686_);fill:#00A78E;}
	.st20{clip-path:url(#SVGID_00000159436276993931088660000015392333446816535686_);fill:#FFFFFF;}
	.st21{fill:#FFFFFF;}
</style>
<g id="back" class="st0">
	<rect x="-72.633" y="-74.619" class="st2" width="515" height="365"/>
</g>
<g id="icons">
	<g id="Kaspersky_Industrial_CyberSecurity_6_">
		<g>
			<defs>
				<rect id="SVGID_00000080911814047928262390000018226963598543321226_" x="0" y="0" width="56" height="62"/>
			</defs>
			<clipPath id="SVGID_00000122688960915092803360000005188090956345488271_">
				<use xlink:href="#SVGID_00000080911814047928262390000018226963598543321226_"  style="overflow:visible;"/>
			</clipPath>
			<g style="clip-path:url(#SVGID_00000122688960915092803360000005188090956345488271_);">
				<defs>
					<rect id="SVGID_00000026155294217127708200000008824813046778292361_" x="0" y="0" width="56" height="62"/>
				</defs>
				<clipPath id="SVGID_00000139267898491317816350000011490032454706009497_">
					<use xlink:href="#SVGID_00000026155294217127708200000008824813046778292361_"  style="overflow:visible;"/>
				</clipPath>
				<path style="clip-path:url(#SVGID_00000139267898491317816350000011490032454706009497_);fill:#00A78E;" d="M30.277,2.604
					l21.41,12.235C53.113,15.654,54,17.181,54,18.824v24.351c0,1.643-0.887,3.17-2.313,3.985l-21.41,12.235
					C29.585,59.79,28.797,60,28,60c-0.798,0-1.585-0.21-2.278-0.605L4.312,47.16C2.886,46.345,2,44.818,2,43.175V18.824
					c0-1.643,0.886-3.17,2.312-3.985l21.41-12.235C26.415,2.209,27.202,2,28,2C28.797,2,29.585,2.209,30.277,2.604 M24.73,0.868
					L3.32,13.102C1.267,14.276,0,16.459,0,18.824v24.351c0,2.365,1.267,4.548,3.32,5.722l21.41,12.234C25.743,61.71,26.871,62,28,62
					c1.128,0,2.256-0.29,3.269-0.869l21.41-12.234C54.732,47.723,56,45.54,56,43.175V18.824c0-2.365-1.268-4.548-3.321-5.722
					L31.269,0.868C30.256,0.289,29.128,0,28,0C26.871,0,25.743,0.289,24.73,0.868"/>
				<path style="clip-path:url(#SVGID_00000139267898491317816350000011490032454706009497_);fill:#FFFFFF;" d="M28,48.5
					c2.577,0,6-3.5,6-3.5s-3.423-3.5-6-3.5c-2.578,0-6,3.5-6,3.5S25.38,48.5,28,48.5 M28,42.208c1.436,0,2.619,1.241,2.619,2.747
					c0,1.507-1.183,2.747-2.619,2.747c-1.437,0-2.62-1.24-2.62-2.747C25.38,43.449,26.521,42.208,28,42.208 M26.907,45.022
					c0-0.62,0.465-1.108,1.056-1.108c0.592,0,1.057,0.488,1.057,1.108s-0.465,1.108-1.057,1.108
					C27.414,46.13,26.907,45.598,26.907,45.022"/>
				
					<rect x="41.982" y="19.911" transform="matrix(0.5 -0.866 0.866 0.5 1.3992 48.2456)" style="clip-path:url(#SVGID_00000139267898491317816350000011490032454706009497_);fill:#FFFFFF;" width="1" height="6"/>
				<path style="clip-path:url(#SVGID_00000139267898491317816350000011490032454706009497_);fill:#FFFFFF;" d="M42.5,26.386
					c1.933,0,3.5-1.567,3.5-3.5c0-1.933-1.567-3.5-3.5-3.5c-1.933,0-3.5,1.567-3.5,3.5C39,24.819,40.567,26.386,42.5,26.386
					 M42.5,20.386c1.381,0,2.5,1.119,2.5,2.5c0,1.381-1.119,2.5-2.5,2.5c-1.381,0-2.5-1.119-2.5-2.5
					C40,21.505,41.119,20.386,42.5,20.386"/>
				<path style="clip-path:url(#SVGID_00000139267898491317816350000011490032454706009497_);fill:#FFFFFF;" d="M28,16
					c1.105,0,2-0.895,2-2c0-1.105-0.895-2-2-2c-1.105,0-2,0.895-2,2C26,15.105,26.895,16,28,16 M28,13c0.552,0,1,0.448,1,1
					c0,0.552-0.448,1-1,1c-0.552,0-1-0.448-1-1C27,13.448,27.448,13,28,13"/>
				<path style="clip-path:url(#SVGID_00000139267898491317816350000011490032454706009497_);fill:#FFFFFF;" d="M13.5,42
					c1.381,0,2.5-1.119,2.5-2.5S14.881,37,13.5,37S11,38.119,11,39.5S12.119,42,13.5,42 M13.5,38c0.828,0,1.5,0.672,1.5,1.5
					S14.328,41,13.5,41c-0.828,0-1.5-0.672-1.5-1.5S12.672,38,13.5,38"/>
				<path style="clip-path:url(#SVGID_00000139267898491317816350000011490032454706009497_);fill:#FFFFFF;" d="M42.5,42
					c1.381,0,2.5-1.119,2.5-2.5S43.881,37,42.5,37c-1.381,0-2.5,1.119-2.5,2.5S41.119,42,42.5,42 M42.5,38
					c0.828,0,1.5,0.672,1.5,1.5S43.328,41,42.5,41c-0.828,0-1.5-0.672-1.5-1.5S41.672,38,42.5,38"/>
				<polygon style="clip-path:url(#SVGID_00000139267898491317816350000011490032454706009497_);fill:#FFFFFF;" points="
					24.271,31.013 25.199,30.096 26.782,31.663 31.344,27.143 32.271,28.063 26.782,33.5 				"/>
				<path style="clip-path:url(#SVGID_00000139267898491317816350000011490032454706009497_);fill:#FFFFFF;" d="M30.122,22.667
					c2.719,0,4.976,2.063,5.136,4.696l0.04,0.64l0.597,0.231c1.744,0.676,2.802,2.42,2.574,4.242C38.217,34.485,36.395,36,34.229,36
					H21.777c-2.197,0-4.025-1.54-4.252-3.581c-0.205-1.847,0.889-3.581,2.659-4.217l0.602-0.216l0.056-0.637
					c0.004-0.044,0.008-0.088,0.014-0.134c0.16-1.236,1.251-2.217,2.537-2.282c0.048-0.002,0.097-0.004,0.145-0.004
					c0.394,0,0.772,0.08,1.124,0.236l0.747,0.333l0.475-0.666C26.849,23.476,28.433,22.667,30.122,22.667 M30.122,21.667
					c-2.041,0-3.922,0.996-5.053,2.585c-0.473-0.211-0.994-0.323-1.531-0.323c-0.065,0-0.13,0.002-0.195,0.005
					c-1.762,0.089-3.258,1.444-3.478,3.153c-0.008,0.058-0.014,0.116-0.019,0.174c-2.173,0.781-3.576,2.91-3.314,5.268
					C16.815,35.078,19.07,37,21.777,37h12.452c2.67,0,4.918-1.891,5.232-4.4c0.291-2.319-1.071-4.471-3.204-5.298
					C36.065,24.163,33.387,21.667,30.122,21.667"/>
				<path style="clip-path:url(#SVGID_00000139267898491317816350000011490032454706009497_);fill:#FFFFFF;" d="M28.5,22.41V15.5h-1
					v7.298C27.818,22.636,28.155,22.511,28.5,22.41"/>
				<path style="clip-path:url(#SVGID_00000139267898491317816350000011490032454706009497_);fill:#FFFFFF;" d="M35.74,27.225
					l4.01-2.291l-0.496-0.869l-3.704,2.117C35.647,26.517,35.711,26.866,35.74,27.225"/>
				<path style="clip-path:url(#SVGID_00000139267898491317816350000011490032454706009497_);fill:#FFFFFF;" d="M36.964,35.668
					c-0.329,0.218-0.679,0.407-1.06,0.542l4.596,2.656L41,38L36.964,35.668z"/>
				
					<rect x="27.5" y="36.5" style="clip-path:url(#SVGID_00000139267898491317816350000011490032454706009497_);fill:#FFFFFF;" width="1" height="5.5"/>
				<path style="clip-path:url(#SVGID_00000139267898491317816350000011490032454706009497_);fill:#FFFFFF;" d="M18.995,35.642
					l-4.241,2.424l0.496,0.868l4.792-2.739C19.664,36.057,19.32,35.862,18.995,35.642"/>
				<path style="clip-path:url(#SVGID_00000139267898491317816350000011490032454706009497_);fill:#FFFFFF;" d="M15.582,23.32v0.208
					c0,0.269-0.099,0.536-0.26,0.797l5.032,2.904l0.007-0.076c0.042-0.323,0.144-0.627,0.282-0.912L15.582,23.32z"/>
				<path style="clip-path:url(#SVGID_00000139267898491317816350000011490032454706009497_);fill:#FFFFFF;" d="M13.082,19.309
					l2,1.167v3.052c0,0.581-0.802,1.381-1.998,2.025c-1.198-0.646-2.002-1.447-2.002-2.025v-3.052L13.082,19.309 M13.082,18.151
					l-3,1.751v3.626c0,1.45,1.872,2.611,3.001,3.144c1.174-0.552,2.999-1.712,2.999-3.144v-3.626L13.082,18.151z"/>
			</g>
		</g>
	</g>
</g>
</svg>
