<?xml version="1.0" encoding="utf-8"?>
<!-- Generator: Adobe Illustrator 24.1.3, SVG Export Plug-In . SVG Version: 6.00 Build 0)  -->
<svg version="1.1" xmlns="http://www.w3.org/2000/svg" xmlns:xlink="http://www.w3.org/1999/xlink" x="0px" y="0px"
	 viewBox="0 0 56 62" style="enable-background:new 0 0 56 62;" xml:space="preserve">
<style type="text/css">
	.st0{display:none;}
	.st1{display:inline;fill:#FFFFFF;}
	.st2{display:inline;}
	.st3{clip-path:url(#SVGID_2_);}
	.st4{clip-path:url(#SVGID_4_);fill:#575756;}
	.st5{clip-path:url(#SVGID_4_);fill:#009982;}
	.st6{clip-path:url(#SVGID_6_);}
	.st7{clip-path:url(#SVGID_8_);fill:#575756;}
	.st8{clip-path:url(#SVGID_8_);fill:#009982;}
	.st9{clip-path:url(#SVGID_10_);}
	.st10{clip-path:url(#SVGID_12_);fill:#575756;}
	.st11{clip-path:url(#SVGID_12_);fill:#009982;}
	.st12{clip-path:url(#SVGID_14_);}
	.st13{clip-path:url(#SVGID_16_);fill:#FFFFFF;}
	.st14{clip-path:url(#SVGID_16_);fill:#009982;}
	.st15{clip-path:url(#SVGID_18_);}
	.st16{clip-path:url(#SVGID_20_);fill:#FFFFFF;}
	.st17{clip-path:url(#SVGID_20_);fill:#009982;}
	.st18{clip-path:url(#SVGID_22_);}
	.st19{clip-path:url(#SVGID_24_);fill:#FFFFFF;}
	.st20{clip-path:url(#SVGID_24_);fill:#009982;}
	.st21{fill:#FFFFFF;}
</style>
<g id="back" class="st0">
	<rect x="-72.633" y="-74.619" class="st1" width="515" height="365"/>
</g>
<g id="icons">
	<g id="Kaspersky_Industrial_CyberSecurity_1_">
		<g>
			<defs>
				<rect id="SVGID_1_" x="0" y="0" width="56" height="62"/>
			</defs>
			<clipPath id="SVGID_2_">
				<use xlink:href="#SVGID_1_"  style="overflow:visible;"/>
			</clipPath>
			<g class="st3">
				<defs>
					<rect id="SVGID_3_" x="0" y="0" width="56" height="62"/>
				</defs>
				<clipPath id="SVGID_4_">
					<use xlink:href="#SVGID_3_"  style="overflow:visible;"/>
				</clipPath>
				<path class="st4" d="M28,25.25c-3.176,0-5.75,2.574-5.75,5.75s2.574,5.75,5.75,5.75s5.75-2.574,5.75-5.75S31.176,25.25,28,25.25
					 M28,35.25c-2.347,0-4.25-1.902-4.25-4.25c0-2.347,1.903-4.25,4.25-4.25c2.348,0,4.25,1.903,4.25,4.25
					C32.25,33.348,30.348,35.25,28,35.25"/>
				<path class="st4" d="M42,35.63c-2.577,0-6,3.5-6,3.5s3.423,3.5,6,3.5c2.577,0,6-3.5,6-3.5S44.62,35.63,42,35.63 M42,41.921
					c-1.437,0-2.62-1.24-2.62-2.747c0-1.506,1.183-2.746,2.62-2.746c1.437,0,2.62,1.24,2.62,2.746
					C44.62,40.681,43.479,41.921,42,41.921"/>
				<path class="st4" d="M43.093,39.107c0,0.62-0.465,1.107-1.057,1.107c-0.591,0-1.055-0.487-1.055-1.107
					c0-0.62,0.464-1.107,1.055-1.107C42.586,38,43.093,38.531,43.093,39.107"/>
				<path class="st4" d="M28,29c1.104,0,2,0.896,2,2c0,1.104-0.896,2-2,2c-1.104,0-2-0.896-2-2C26,29.896,26.896,29,28,29"/>
				<path class="st4" d="M32.541,28.909l8.705-4.974l-0.496-0.869l-8.717,4.981C32.229,28.316,32.4,28.604,32.541,28.909
					 M23.89,33.852c-0.189-0.272-0.353-0.565-0.486-0.874l-7.154,4.089l0.496,0.868L23.89,33.852z"/>
				<rect x="13.018" y="36.089" transform="matrix(0.5 -0.866 0.866 0.5 -27.0934 31.251)" class="st4" width="1" height="6"/>
				<path class="st4" d="M13.5,35.614c-1.933,0-3.5,1.566-3.5,3.5c0,1.933,1.567,3.5,3.5,3.5s3.5-1.567,3.5-3.5
					C17,37.18,15.433,35.614,13.5,35.614 M13.5,41.614c-1.381,0-2.5-1.119-2.5-2.5s1.119-2.5,2.5-2.5s2.5,1.119,2.5,2.5
					S14.881,41.614,13.5,41.614"/>
				<path class="st4" d="M32.092,33.875l7.152,4.132l0.501-0.865l-7.162-4.139C32.448,33.312,32.283,33.603,32.092,33.875
					 M23.466,28.891c0.142-0.304,0.313-0.592,0.511-0.859l-8.476-4.898L15,24L23.466,28.891z"/>
				<rect x="27.5" y="36.5" class="st4" width="1" height="11"/>
				<rect x="27.5" y="14.5" class="st4" width="1" height="2.5"/>
				<rect x="27.5" y="23" class="st4" width="1" height="3"/>
				
					<rect x="25.172" y="19.5" transform="matrix(0.7071 -0.7071 0.7071 0.7071 -5.9411 25.6568)" class="st4" width="5.657" height="1"/>
				
					<rect x="27.5" y="17.172" transform="matrix(0.7071 -0.7071 0.7071 0.7071 -5.9411 25.6569)" class="st4" width="1" height="5.657"/>
				<path class="st4" d="M28,47c-1.104,0-2,0.896-2,2s0.896,2,2,2c1.104,0,2-0.896,2-2S29.104,47,28,47 M28,50c-0.552,0-1-0.447-1-1
					c0-0.552,0.448-1,1-1c0.552,0,1,0.448,1,1C29,49.553,28.552,50,28,50"/>
				<path class="st4" d="M42.5,20c-1.381,0-2.5,1.119-2.5,2.5c0,1.381,1.119,2.5,2.5,2.5c1.381,0,2.5-1.119,2.5-2.5
					C45,21.119,43.881,20,42.5,20 M42.5,24c-0.828,0-1.5-0.671-1.5-1.5c0-0.829,0.672-1.5,1.5-1.5c0.828,0,1.5,0.671,1.5,1.5
					C44,23.329,43.328,24,42.5,24"/>
				<path class="st4" d="M13.5,20c-1.381,0-2.5,1.119-2.5,2.5c0,1.381,1.119,2.5,2.5,2.5s2.5-1.119,2.5-2.5
					C16,21.119,14.881,20,13.5,20 M13.5,24c-0.829,0-1.5-0.671-1.5-1.5c0-0.829,0.671-1.5,1.5-1.5c0.829,0,1.5,0.671,1.5,1.5
					C15,23.329,14.329,24,13.5,24"/>
				<path class="st4" d="M28,11c-1.104,0-2,0.896-2,2s0.896,2,2,2c1.104,0,2-0.896,2-2S29.104,11,28,11 M28,14c-0.552,0-1-0.448-1-1
					c0-0.552,0.448-1,1-1c0.552,0,1,0.448,1,1C29,13.552,28.552,14,28,14"/>
				<path class="st5" d="M28,2c0.797,0,1.585,0.209,2.277,0.605l21.41,12.234C53.114,15.654,54,17.182,54,18.825v24.351
					c0,1.642-0.886,3.17-2.313,3.985l-21.41,12.235C29.585,59.791,28.797,60,28,60c-0.797,0-1.585-0.209-2.277-0.604L4.313,47.161
					C2.886,46.346,2,44.818,2,43.176V18.825c0-1.643,0.886-3.171,2.313-3.986l21.41-12.234C26.415,2.209,27.203,2,28,2 M28,0
					c-1.128,0-2.257,0.29-3.27,0.868L3.32,13.103C1.267,14.276,0,16.459,0,18.825v24.351c0,2.364,1.267,4.548,3.32,5.721
					l21.41,12.235C25.743,61.711,26.872,62,28,62c1.128,0,2.257-0.289,3.27-0.868l21.41-12.235C54.732,47.724,56,45.54,56,43.176
					V18.825c0-2.366-1.268-4.549-3.32-5.722L31.27,0.868C30.257,0.29,29.128,0,28,0"/>
			</g>
		</g>
	</g>
</g>
</svg>
