<?xml version="1.0" encoding="UTF-8" standalone="no"?><!DOCTYPE svg PUBLIC "-//W3C//DTD SVG 1.1//EN" "http://www.w3.org/Graphics/SVG/1.1/DTD/svg11.dtd"><svg width="100%" height="100%" viewBox="0 0 917 259" version="1.1" xmlns="http://www.w3.org/2000/svg" xmlns:xlink="http://www.w3.org/1999/xlink" xml:space="preserve" xmlns:serif="http://www.serif.com/" style="fill-rule:evenodd;clip-rule:evenodd;stroke-linejoin:round;stroke-miterlimit:2;"><g><path d="M291.621,31.054l7.767,0l0,21.717l19.45,-21.717l9.762,0l-20.138,22.063l0,1.1l21.233,24.946l-10.104,0l-20.204,-24.192l0,24.192l-7.767,0l0,-48.108Z" style="fill:#231f20;fill-rule:nonzero;"/><path d="M355.05,68.992l0,-3.987l-9.554,0c-3.433,0 -5.358,1.446 -5.358,4.262c0,2.954 2.404,4.329 5.775,4.329c3.433,0 6.596,-1.375 9.138,-4.604Zm7.629,-11.75l0,21.921l-7.629,0l0,-2.817l-1.096,0c-2.067,2.062 -5.775,3.642 -9.762,3.642c-7.421,0 -11.821,-4.054 -11.821,-10.1c0,-6.258 4.329,-10.379 12.371,-10.379l10.308,0l0,-1.858c0,-3.296 -1.992,-5.496 -6.392,-5.496c-3.988,0 -6.325,1.717 -6.804,4.538l-8.108,0c0.758,-6.804 6.325,-11.479 14.983,-11.479c8.038,0 13.95,3.642 13.95,12.029Z" style="fill:#231f20;fill-rule:nonzero;"/><path d="M368.767,68.717l7.7,0c0.479,2.612 3.021,4.675 7.288,4.675c4.742,0 6.596,-1.858 6.596,-4.262c0,-2.612 -1.854,-3.3 -4.671,-3.575l-5.704,-0.55c-6.875,-0.688 -10.175,-3.846 -10.175,-9.138c0,-6.325 5.292,-10.654 13.608,-10.654c8.388,0 12.921,3.917 13.404,10.104l-7.354,0c-0.346,-2.2 -2.612,-3.713 -6.121,-3.713c-3.433,0 -5.908,1.308 -5.908,3.917c0,2.2 1.788,3.229 5.637,3.504l4.946,0.483c6.188,0.55 9.967,2.954 9.967,9.346c0,6.667 -5.154,11.133 -14.362,11.133c-9.346,0 -14.433,-4.946 -14.85,-11.271Z" style="fill:#231f20;fill-rule:nonzero;"/><path d="M430.971,62.6c0,-7.217 -4.671,-10.242 -9.275,-10.242c-4.671,0 -9.212,3.092 -9.212,10.242c0,7.15 4.542,10.242 9.212,10.242c4.604,0 9.275,-3.025 9.275,-10.242Zm-26.117,-16.562l7.629,0l0,4.329l1.1,0c2.267,-3.642 6.258,-5.154 10.175,-5.154c7.629,0 14.912,5.775 14.912,17.179c0,11.963 -7.762,17.596 -15.392,17.596c-3.712,0 -7.979,-1.304 -10.796,-4.879l0,19.175l-7.629,0l0,-48.246Z" style="fill:#231f20;fill-rule:nonzero;"/><path d="M469.2,59.025c-0.208,-3.983 -3.163,-7.35 -8.383,-7.35c-4.4,0 -7.833,2.608 -8.867,7.35l17.25,0Zm-25.083,3.642c0,-9.896 6.454,-17.454 16.629,-17.454c9.417,0 15.875,6.462 15.875,15.533l0,3.917l-24.875,0c0.683,5.704 4.258,8.454 9,8.454c4.125,0 6.6,-1.992 7.629,-4.675l7.629,0c-1.788,6.738 -7.217,11.546 -15.187,11.546c-10.104,0 -16.7,-7.354 -16.7,-17.321Z" style="fill:#231f20;fill-rule:nonzero;"/><path d="M483.396,46.037l7.629,0l0,4.262l1.1,0c1.171,-2.75 3.579,-4.746 7.7,-4.746l4.537,0l0,7.563l-5.088,0c-5.704,0 -8.25,3.504 -8.25,9.346l0,16.7l-7.629,0l0,-33.125Z" style="fill:#231f20;fill-rule:nonzero;"/><path d="M508.167,68.717l7.692,0c0.483,2.612 3.025,4.675 7.288,4.675c4.742,0 6.596,-1.858 6.596,-4.262c0,-2.612 -1.854,-3.3 -4.671,-3.575l-5.704,-0.55c-6.871,-0.688 -10.171,-3.846 -10.171,-9.138c0,-6.325 5.287,-10.654 13.604,-10.654c8.388,0 12.925,3.917 13.4,10.104l-7.346,0c-0.346,-2.2 -2.613,-3.713 -6.121,-3.713c-3.433,0 -5.908,1.308 -5.908,3.917c0,2.2 1.788,3.229 5.633,3.504l4.95,0.483c6.183,0.55 9.967,2.954 9.967,9.346c0,6.667 -5.158,11.133 -14.367,11.133c-9.346,0 -14.433,-4.946 -14.842,-11.271Z" style="fill:#231f20;fill-rule:nonzero;"/><path d="M564.8,79.163l-12.921,-16.013l0,16.013l-7.633,0l0,-49.483l7.633,-0l0,30.929l12.438,-14.571l9.142,0l-13.262,15.325l0,1.029l14.017,16.771l-9.413,0Z" style="fill:#231f20;fill-rule:nonzero;"/><path d="M591.162,75.658l-13.746,-29.621l8.658,0l6.804,14.983c0.687,1.304 1.237,2.679 1.925,4.742l1.029,0c0.617,-2.063 1.237,-3.438 1.854,-4.742l6.942,-14.983l8.525,0l-22.062,48.246l-8.658,0l8.729,-18.625Z" style="fill:#231f20;fill-rule:nonzero;"/><path d="M299.387,111.05l0,13.058l23.708,0l0,7.079l-23.708,0l0,13.817l25.083,0l0,7.075l-32.85,0l0,-48.108l32.85,0l0,7.079l-25.083,0Z" style="fill:#231f20;fill-rule:nonzero;"/><path d="M331.904,118.954l7.629,0l0,3.917l1.096,0c1.375,-2.337 4.675,-4.742 9.833,-4.742c6.254,0 12.229,3.437 12.229,12.717l0,21.233l-7.629,0l0,-18.829c0,-5.362 -3.296,-7.562 -7.283,-7.562c-5.292,0 -8.246,3.642 -8.246,9.212l0,17.179l-7.629,0l0,-33.125Z" style="fill:#231f20;fill-rule:nonzero;"/><path d="M395.45,135.517c0,-7.15 -4.537,-10.242 -9.208,-10.242c-4.608,0 -9.283,3.025 -9.283,10.242c0,7.217 4.675,10.242 9.283,10.242c4.671,0 9.208,-3.092 9.208,-10.242Zm-26.187,0.208c0,-11.963 7.767,-17.596 15.462,-17.596c3.642,0 7.908,1.304 10.725,4.812l0,-20.346l7.629,0l0,49.483l-7.629,0l0,-4.329l-1.033,0c-2.338,3.642 -6.321,5.154 -10.242,5.154c-7.629,0 -14.913,-5.771 -14.913,-17.179Z" style="fill:#231f20;fill-rule:nonzero;"/><path d="M437.396,135.517c0,-7.217 -4.671,-10.242 -9.275,-10.242c-4.671,0 -9.208,3.092 -9.208,10.242c0,7.15 4.537,10.242 9.208,10.242c4.604,0 9.275,-3.025 9.275,-10.242Zm-26.117,-16.563l7.633,0l0,4.329l1.1,0c2.262,-3.642 6.254,-5.154 10.171,-5.154c7.629,0 14.912,5.775 14.912,17.179c0,11.962 -7.762,17.596 -15.392,17.596c-3.712,0 -7.975,-1.304 -10.792,-4.879l0,19.175l-7.633,0l0,-48.246Z" style="fill:#231f20;fill-rule:nonzero;"/><path d="M477.133,135.517c0,-6.463 -4.396,-10.242 -9.479,-10.242c-5.088,0 -9.483,3.779 -9.483,10.242c0,6.463 4.396,10.242 9.483,10.242c5.083,0 9.479,-3.779 9.479,-10.242Zm-26.592,0c0,-9.554 6.662,-17.387 17.113,-17.387c10.517,0 17.179,7.833 17.179,17.387c0,9.554 -6.662,17.388 -17.179,17.388c-10.45,0 -17.113,-7.833 -17.113,-17.388Z" style="fill:#231f20;fill-rule:nonzero;"/><path d="M491.546,118.954l7.629,0l0,33.125l-7.629,0l0,-33.125Zm-0.279,-14.571l8.25,0l0,8.179l-8.25,0l0,-8.179Z" style="fill:#231f20;fill-rule:nonzero;"/><path d="M507.271,118.954l7.629,0l0,3.917l1.1,0c1.375,-2.337 4.675,-4.742 9.829,-4.742c6.254,0 12.229,3.437 12.229,12.717l0,21.233l-7.625,0l0,-18.829c0,-5.362 -3.3,-7.562 -7.288,-7.562c-5.292,0 -8.246,3.642 -8.246,9.212l0,17.179l-7.629,0l0,-33.125Z" style="fill:#231f20;fill-rule:nonzero;"/><path d="M549.467,141.083l0,-15.121l-6.808,0l0,-7.008l6.808,0l0,-8.933l7.625,0l0,8.933l10.379,0l0,7.008l-10.379,0l0,13.954c0,3.296 1.446,4.946 5.017,4.946l5.017,0l0,7.217l-6.733,0c-6.596,0 -10.925,-3.367 -10.925,-10.996Z" style="fill:#231f20;fill-rule:nonzero;"/><path d="M622.467,128.025c0,-9.554 -4.467,-16.975 -14.292,-16.975l-10.379,0l0,33.954l10.379,0c9.825,0 14.292,-7.496 14.292,-16.979Zm7.971,0c0,14.642 -8.246,24.054 -21.854,24.054l-18.558,0l0,-48.108l18.558,0c13.608,0 21.854,9.417 21.854,24.054Z" style="fill:#231f20;fill-rule:nonzero;"/><path d="M661.425,131.942c-0.208,-3.983 -3.163,-7.35 -8.388,-7.35c-4.396,0 -7.833,2.608 -8.867,7.35l17.254,0Zm-25.088,3.642c0,-9.896 6.458,-17.454 16.633,-17.454c9.413,0 15.875,6.462 15.875,15.533l0,3.917l-24.875,0c0.688,5.704 4.258,8.454 9,8.454c4.125,0 6.6,-1.992 7.629,-4.675l7.629,0c-1.788,6.737 -7.221,11.546 -15.192,11.546c-10.104,0 -16.7,-7.354 -16.7,-17.321Z" style="fill:#231f20;fill-rule:nonzero;"/><path d="M679.425,141.083l0,-15.121l-6.804,0l0,-7.008l6.804,0l0,-8.933l7.625,0l0,8.933l10.383,0l0,7.008l-10.383,0l0,13.954c0,3.296 1.446,4.946 5.017,4.946l5.021,0l0,7.217l-6.737,0c-6.596,0 -10.925,-3.367 -10.925,-10.996Z" style="fill:#231f20;fill-rule:nonzero;"/><path d="M727.062,131.942c-0.208,-3.983 -3.163,-7.35 -8.388,-7.35c-4.396,0 -7.833,2.608 -8.867,7.35l17.254,0Zm-25.087,3.642c0,-9.896 6.458,-17.454 16.633,-17.454c9.413,0 15.875,6.462 15.875,15.533l0,3.917l-24.879,0c0.688,5.704 4.263,8.454 9.004,8.454c4.125,0 6.6,-1.992 7.629,-4.675l7.629,0c-1.788,6.737 -7.221,11.546 -15.192,11.546c-10.104,0 -16.7,-7.354 -16.7,-17.321Z" style="fill:#231f20;fill-rule:nonzero;"/><path d="M739.929,135.517c0,-10.033 6.733,-17.387 16.629,-17.387c7.975,0 14.092,4.812 15.258,12.304l-7.558,0c-0.963,-3.438 -3.642,-5.433 -7.7,-5.433c-5.221,0 -9.208,3.713 -9.208,10.517c0,7.008 4.192,10.517 9.138,10.517c4.129,0 6.808,-1.992 7.771,-5.429l7.558,0c-1.167,7.492 -7.283,12.3 -15.258,12.3c-9.896,0 -16.629,-7.354 -16.629,-17.388Z" style="fill:#231f20;fill-rule:nonzero;"/><path d="M782.6,141.083l0,-15.121l-6.808,0l0,-7.008l6.808,0l0,-8.933l7.625,0l0,8.933l10.379,0l0,7.008l-10.379,0l0,13.954c0,3.296 1.446,4.946 5.017,4.946l5.017,0l0,7.217l-6.733,0c-6.596,0 -10.925,-3.367 -10.925,-10.996Z" style="fill:#231f20;fill-rule:nonzero;"/><path d="M806.875,118.954l7.629,0l0,33.125l-7.629,0l0,-33.125Zm-0.275,-14.571l8.246,0l0,8.179l-8.246,0l0,-8.179Z" style="fill:#231f20;fill-rule:nonzero;"/><path d="M847.8,135.517c0,-6.463 -4.396,-10.242 -9.483,-10.242c-5.083,0 -9.479,3.779 -9.479,10.242c0,6.463 4.396,10.242 9.479,10.242c5.088,0 9.483,-3.779 9.483,-10.242Zm-26.592,0c0,-9.554 6.662,-17.387 17.108,-17.387c10.521,0 17.183,7.833 17.183,17.387c0,9.554 -6.663,17.388 -17.183,17.388c-10.446,0 -17.108,-7.833 -17.108,-17.388Z" style="fill:#231f20;fill-rule:nonzero;"/><path d="M862.175,118.954l7.629,0l0,3.917l1.096,0c1.375,-2.337 4.675,-4.742 9.833,-4.742c6.254,0 12.229,3.437 12.229,12.717l0,21.233l-7.629,0l0,-18.829c0,-5.362 -3.296,-7.562 -7.283,-7.562c-5.292,0 -8.246,3.642 -8.246,9.212l0,17.179l-7.629,0l0,-33.125Z" style="fill:#231f20;fill-rule:nonzero;"/><path d="M312.65,214.825l0,-3.987l-9.55,0c-3.433,0 -5.358,1.446 -5.358,4.262c0,2.954 2.404,4.329 5.775,4.329c3.433,0 6.596,-1.375 9.133,-4.604Zm7.633,-11.75l0,21.921l-7.633,0l0,-2.817l-1.096,0c-2.063,2.062 -5.771,3.642 -9.758,3.642c-7.425,0 -11.821,-4.054 -11.821,-10.1c0,-6.258 4.329,-10.379 12.367,-10.379l10.308,0l0,-1.858c0,-3.296 -1.992,-5.496 -6.388,-5.496c-3.988,0 -6.325,1.717 -6.804,4.537l-8.108,0c0.754,-6.804 6.321,-11.479 14.979,-11.479c8.042,0 13.954,3.642 13.954,12.029Z" style="fill:#231f20;fill-rule:nonzero;"/><path d="M328.117,191.871l7.629,0l0,3.917l1.1,0c1.375,-2.337 4.675,-4.742 9.829,-4.742c6.254,0 12.233,3.437 12.233,12.717l0,21.233l-7.629,0l0,-18.829c0,-5.362 -3.296,-7.562 -7.283,-7.562c-5.296,0 -8.25,3.642 -8.25,9.213l0,17.179l-7.629,0l0,-33.125Z" style="fill:#231f20;fill-rule:nonzero;"/><path d="M391.663,208.433c0,-7.15 -4.537,-10.242 -9.208,-10.242c-4.604,0 -9.279,3.025 -9.279,10.242c0,7.217 4.675,10.242 9.279,10.242c4.671,0 9.208,-3.092 9.208,-10.242Zm-26.183,0.208c0,-11.963 7.763,-17.596 15.463,-17.596c3.642,0 7.908,1.304 10.721,4.812l0,-20.346l7.629,0l0,49.483l-7.629,0l0,-4.329l-1.029,0c-2.337,3.642 -6.321,5.154 -10.242,5.154c-7.629,0 -14.913,-5.771 -14.913,-17.179Z" style="fill:#231f20;fill-rule:nonzero;"/><path d="M441.371,198.813c5.637,0 8.321,-3.229 8.321,-7.563c0,-4.258 -2.683,-7.558 -8.321,-7.558l-11.271,0l0,15.121l11.271,0Zm-19.038,-21.925l19.587,0c9.967,0 15.671,6.117 15.671,14.363c0,7.838 -5.017,13.333 -13.746,14.021l-2.954,0l0,1.1l16.429,18.625l-9.488,0l-16.633,-19.312l-1.1,0l0,19.312l-7.767,0l0,-48.108Z" style="fill:#231f20;fill-rule:nonzero;"/><path d="M486.887,204.858c-0.204,-3.983 -3.158,-7.35 -8.383,-7.35c-4.4,0 -7.833,2.608 -8.867,7.35l17.25,0Zm-25.083,3.642c0,-9.896 6.458,-17.454 16.629,-17.454c9.417,0 15.879,6.463 15.879,15.533l0,3.917l-24.879,0c0.688,5.704 4.258,8.454 9,8.454c4.125,0 6.6,-1.992 7.629,-4.675l7.629,0c-1.788,6.738 -7.217,11.546 -15.187,11.546c-10.104,0 -16.7,-7.354 -16.7,-17.321Z" style="fill:#231f20;fill-rule:nonzero;"/><path d="M499.204,214.55l7.696,0c0.479,2.613 3.025,4.675 7.288,4.675c4.742,0 6.596,-1.858 6.596,-4.263c0,-2.612 -1.854,-3.3 -4.671,-3.575l-5.704,-0.55c-6.875,-0.687 -10.175,-3.846 -10.175,-9.137c0,-6.325 5.292,-10.654 13.608,-10.654c8.388,0 12.925,3.917 13.404,10.104l-7.354,0c-0.346,-2.2 -2.612,-3.712 -6.121,-3.712c-3.433,0 -5.908,1.308 -5.908,3.917c0,2.2 1.788,3.229 5.637,3.504l4.95,0.483c6.183,0.55 9.962,2.954 9.962,9.346c0,6.667 -5.154,11.133 -14.362,11.133c-9.346,0 -14.433,-4.946 -14.846,-11.271Z" style="fill:#231f20;fill-rule:nonzero;"/><path d="M561.404,208.433c0,-7.217 -4.671,-10.242 -9.275,-10.242c-4.675,0 -9.212,3.092 -9.212,10.242c0,7.15 4.538,10.242 9.212,10.242c4.604,0 9.275,-3.025 9.275,-10.242Zm-26.112,-16.563l7.625,0l0,4.329l1.096,0c2.271,-3.642 6.258,-5.154 10.179,-5.154c7.629,0 14.913,5.775 14.913,17.179c0,11.963 -7.767,17.596 -15.396,17.596c-3.708,0 -7.975,-1.304 -10.792,-4.879l0,19.175l-7.625,0l0,-48.246Z" style="fill:#231f20;fill-rule:nonzero;"/><path d="M601.142,208.433c0,-6.463 -4.396,-10.242 -9.479,-10.242c-5.087,0 -9.487,3.779 -9.487,10.242c0,6.462 4.4,10.242 9.487,10.242c5.083,0 9.479,-3.779 9.479,-10.242Zm-26.596,0c0,-9.554 6.667,-17.388 17.117,-17.388c10.513,0 17.179,7.833 17.179,17.388c0,9.554 -6.667,17.387 -17.179,17.387c-10.45,0 -17.117,-7.833 -17.117,-17.387Z" style="fill:#231f20;fill-rule:nonzero;"/><path d="M615.513,191.871l7.629,0l0,3.917l1.1,0c1.375,-2.337 4.675,-4.742 9.833,-4.742c6.254,0 12.229,3.437 12.229,12.717l0,21.233l-7.629,0l0,-18.829c0,-5.362 -3.296,-7.562 -7.283,-7.562c-5.296,0 -8.25,3.642 -8.25,9.213l0,17.179l-7.629,0l0,-33.125Z" style="fill:#231f20;fill-rule:nonzero;"/><path d="M652.396,214.55l7.7,0c0.479,2.613 3.021,4.675 7.287,4.675c4.738,0 6.596,-1.858 6.596,-4.263c0,-2.612 -1.858,-3.3 -4.671,-3.575l-5.708,-0.55c-6.871,-0.687 -10.171,-3.846 -10.171,-9.137c0,-6.325 5.292,-10.654 13.608,-10.654c8.383,0 12.921,3.917 13.4,10.104l-7.35,0c-0.346,-2.2 -2.612,-3.712 -6.121,-3.712c-3.433,0 -5.908,1.308 -5.908,3.917c0,2.2 1.787,3.229 5.637,3.504l4.946,0.483c6.188,0.55 9.967,2.954 9.967,9.346c0,6.667 -5.158,11.133 -14.367,11.133c-9.346,0 -14.429,-4.946 -14.846,-11.271Z" style="fill:#231f20;fill-rule:nonzero;"/><path d="M711.975,204.858c-0.208,-3.983 -3.162,-7.35 -8.388,-7.35c-4.4,0 -7.833,2.608 -8.867,7.35l17.254,0Zm-25.087,3.642c0,-9.896 6.458,-17.454 16.633,-17.454c9.413,0 15.875,6.463 15.875,15.533l0,3.917l-24.879,0c0.683,5.704 4.262,8.454 9.004,8.454c4.125,0 6.6,-1.992 7.629,-4.675l7.629,0c-1.788,6.738 -7.221,11.546 -15.192,11.546c-10.104,0 -16.7,-7.354 -16.7,-17.321Z" style="fill:#231f20;fill-rule:nonzero;"/><g><path d="M116.667,146.879c-9.779,0 -17.708,-7.925 -17.708,-17.708c0,-9.779 7.929,-17.708 17.708,-17.708c9.783,0 17.708,7.929 17.708,17.708c0,9.783 -7.925,17.708 -17.708,17.708Zm0,-41.667c-13.233,0 -23.958,10.725 -23.958,23.958c0,13.233 10.725,23.958 23.958,23.958c13.233,0 23.958,-10.725 23.958,-23.958c0,-13.233 -10.725,-23.958 -23.958,-23.958Z" style="fill:#58595b;fill-rule:nonzero;"/><path d="M175,174.671c-5.988,0 -10.917,-5.167 -10.917,-11.446c0,-6.275 4.929,-11.442 10.917,-11.442c5.988,0 10.917,5.167 10.917,11.442c0,6.279 -4.754,11.446 -10.917,11.446Zm0,-26.213c-10.737,0 -25,14.583 -25,14.583c0,0 14.263,14.583 25,14.583c10.737,0 25,-14.583 25,-14.583c0,0 -14.083,-14.583 -25,-14.583Z" style="fill:#58595b;fill-rule:nonzero;"/><path d="M179.55,162.95c0,2.583 -1.938,4.613 -4.404,4.613c-2.462,0 -4.396,-2.029 -4.396,-4.613c0,-2.583 1.933,-4.613 4.396,-4.613c2.292,0 4.404,2.213 4.404,4.613Z" style="fill:#58595b;fill-rule:nonzero;"/><path d="M116.667,120.837c4.6,0 8.333,3.733 8.333,8.333c0,4.6 -3.733,8.333 -8.333,8.333c-4.6,0 -8.333,-3.733 -8.333,-8.333c0,-4.6 3.733,-8.333 8.333,-8.333Z" style="fill:#58595b;fill-rule:nonzero;"/><path d="M99.542,141.05c-0.787,-1.133 -1.471,-2.354 -2.025,-3.642l-29.808,17.037l2.067,3.617l29.767,-17.013Zm36.046,-20.596l36.271,-20.725l-2.067,-3.621l-36.321,20.754c0.817,1.121 1.529,2.321 2.117,3.592Z" style="fill:#58595b;fill-rule:nonzero;"/><path d="M44.454,158.429l21.65,12.5l2.083,-3.608l-21.65,-12.5l-2.083,3.608Z" style="fill:#58595b;fill-rule:nonzero;"/><path d="M56.25,173.396c-5.754,0 -10.417,-4.662 -10.417,-10.417c0,-5.754 4.663,-10.417 10.417,-10.417c5.754,0 10.417,4.662 10.417,10.417c0,5.754 -4.663,10.417 -10.417,10.417Zm0,-25c-8.054,0 -14.583,6.525 -14.583,14.583c0,8.054 6.529,14.583 14.583,14.583c8.054,0 14.583,-6.529 14.583,-14.583c0,-8.058 -6.529,-14.583 -14.583,-14.583Z" style="fill:#58595b;fill-rule:nonzero;"/><path d="M97.771,120.379c0.592,-1.267 1.304,-2.467 2.129,-3.579l-35.317,-20.408l-2.088,3.608l35.275,20.379Zm35.942,20.767l29.8,17.217l2.087,-3.604l-29.842,-17.246c-0.563,1.288 -1.25,2.5 -2.046,3.633Z" style="fill:#58595b;fill-rule:nonzero;"/><rect x="114.583" y="152.083" width="4.167" height="45.833" style="fill:#58595b;fill-rule:nonzero;"/><rect x="114.583" y="60.417" width="4.167" height="10.417" style="fill:#58595b;fill-rule:nonzero;"/><rect x="114.583" y="95.833" width="4.167" height="12.5" style="fill:#58595b;fill-rule:nonzero;"/><path d="M123.525,73.529l-16.667,16.667l2.946,2.946l16.667,-16.667l-2.946,-2.946Z" style="fill:#58595b;fill-rule:nonzero;"/><path d="M106.858,76.475l16.667,16.667l2.946,-2.946l-16.667,-16.667l-2.946,2.946Z" style="fill:#58595b;fill-rule:nonzero;"/><path d="M116.667,208.338c-2.3,0 -4.167,-1.863 -4.167,-4.167c0,-2.3 1.867,-4.167 4.167,-4.167c2.3,0 4.167,1.867 4.167,4.167c0,2.304 -1.867,4.167 -4.167,4.167Zm0,-12.5c-4.6,0 -8.333,3.733 -8.333,8.333c0,4.6 3.733,8.333 8.333,8.333c4.6,0 8.333,-3.733 8.333,-8.333c0,-4.6 -3.733,-8.333 -8.333,-8.333Z" style="fill:#58595b;fill-rule:nonzero;"/><path d="M177.083,100.004c-3.45,0 -6.25,-2.796 -6.25,-6.25c0,-3.454 2.8,-6.25 6.25,-6.25c3.45,0 6.25,2.796 6.25,6.25c0,3.454 -2.8,6.25 -6.25,6.25Zm0,-16.667c-5.754,0 -10.417,4.662 -10.417,10.417c0,5.754 4.662,10.417 10.417,10.417c5.754,0 10.417,-4.662 10.417,-10.417c0,-5.754 -4.662,-10.417 -10.417,-10.417Z" style="fill:#58595b;fill-rule:nonzero;"/><path d="M56.25,100.004c-3.454,0 -6.25,-2.796 -6.25,-6.25c0,-3.454 2.796,-6.25 6.25,-6.25c3.454,0 6.25,2.796 6.25,6.25c0,3.454 -2.796,6.25 -6.25,6.25Zm0,-16.667c-5.754,0 -10.417,4.662 -10.417,10.417c0,5.754 4.663,10.417 10.417,10.417c5.754,0 10.417,-4.662 10.417,-10.417c0,-5.754 -4.663,-10.417 -10.417,-10.417Z" style="fill:#58595b;fill-rule:nonzero;"/><path d="M116.667,58.337c-2.3,0 -4.167,-1.867 -4.167,-4.167c0,-2.3 1.867,-4.167 4.167,-4.167c2.3,0 4.167,1.867 4.167,4.167c0,2.3 -1.867,4.167 -4.167,4.167Zm0,-12.5c-4.6,0 -8.333,3.733 -8.333,8.333c0,4.6 3.733,8.333 8.333,8.333c4.6,0 8.333,-3.733 8.333,-8.333c0,-4.6 -3.733,-8.333 -8.333,-8.333Z" style="fill:#58595b;fill-rule:nonzero;"/><path d="M116.667,0.004c-4.7,0 -9.404,1.208 -13.625,3.617l-89.208,50.979c-8.554,4.888 -13.833,13.983 -13.833,23.842l0,101.462c0,9.85 5.279,18.95 13.833,23.837l89.208,50.979c4.221,2.412 8.925,3.612 13.625,3.612c4.7,0 9.404,-1.2 13.625,-3.612l89.208,-50.979c8.55,-4.887 13.833,-13.987 13.833,-23.837l0,-101.462c0,-9.858 -5.283,-18.954 -13.833,-23.842l-89.208,-50.979c-4.221,-2.408 -8.925,-3.617 -13.625,-3.617Zm0,8.333c3.321,0 6.604,0.871 9.488,2.521l89.208,50.975c5.946,3.396 9.637,9.762 9.637,16.608l0,101.462c0,6.842 -3.692,13.208 -9.637,16.604l-89.208,50.979c-2.883,1.646 -6.167,2.517 -9.488,2.517c-3.321,0 -6.604,-0.871 -9.488,-2.517l-89.208,-50.979c-5.946,-3.396 -9.638,-9.762 -9.638,-16.604l0,-101.462c0,-6.846 3.692,-13.213 9.638,-16.608l89.208,-50.975c2.883,-1.65 6.167,-2.521 9.488,-2.521Z" style="fill:#00a88e;fill-rule:nonzero;"/></g></g></svg>