<svg width="32" height="32" viewBox="0 0 32 32" fill="none" xmlns="http://www.w3.org/2000/svg">
<path d="M0.5 8.75C0.5 7.7835 1.2835 7 2.25 7H29.25C30.2165 7 31 7.7835 31 8.75V16.7999C30.625 16.6081 30.2001 16.5 29.75 16.5H29.5V8.75C29.5 8.61193 29.3881 8.5 29.25 8.5H2.25C2.11193 8.5 2 8.61193 2 8.75V19.75C2 19.8881 2.11193 20 2.25 20H18V21.5H2.25C1.2835 21.5 0.5 20.7165 0.5 19.75V8.75Z" fill="#1D1D1B"/>
<path d="M5.76858 16.4167L7.34999 15.38L7.29706 17.3031C7.29319 17.4438 7.4062 17.56 7.54697 17.56H8.45302C8.59378 17.56 8.7068 17.4438 8.70292 17.3031L8.64999 15.38L10.2314 16.4167C10.3505 16.4948 10.5107 16.4577 10.5834 16.3353L11.0751 15.5073C11.1483 15.3839 11.1029 15.2242 10.9756 15.1579L9.28999 14.28L10.9739 13.4029C11.1018 13.3363 11.147 13.1756 11.0725 13.0521L10.583 12.2405C10.5102 12.1198 10.352 12.0831 10.2335 12.1595L8.64999 13.18L8.70292 11.2569C8.7068 11.1162 8.59378 11 8.45302 11H7.54697C7.4062 11 7.29319 11.1162 7.29706 11.2569L7.34999 13.18L5.76647 12.1595C5.64797 12.0831 5.48979 12.1198 5.41698 12.2405L4.92746 13.0521C4.85297 13.1756 4.89814 13.3363 5.02605 13.4029L6.70999 14.28L5.02441 15.1579C4.89711 15.2242 4.85165 15.3839 4.92493 15.5073L5.41655 16.3353C5.48927 16.4577 5.64946 16.4948 5.76858 16.4167Z" fill="#1D1D1B"/>
<path d="M15.35 15.38L13.7686 16.4167C13.6495 16.4948 13.4893 16.4577 13.4166 16.3353L12.9249 15.5073C12.8517 15.3839 12.8971 15.2242 13.0244 15.1579L14.71 14.28L13.026 13.4029C12.8981 13.3363 12.853 13.1756 12.9275 13.0521L13.417 12.2405C13.4898 12.1198 13.648 12.0831 13.7665 12.1595L15.35 13.18L15.2971 11.2569C15.2932 11.1162 15.4062 11 15.547 11H16.453C16.5938 11 16.7068 11.1162 16.7029 11.2569L16.65 13.18L18.2335 12.1595C18.352 12.0831 18.5102 12.1198 18.583 12.2405L19.0725 13.0521C19.147 13.1756 19.1018 13.3363 18.9739 13.4029L17.29 14.28L18.9756 15.1579C19.1029 15.2242 19.1483 15.3839 19.0751 15.5073L18.5834 16.3353C18.5107 16.4577 18.3505 16.4948 18.2314 16.4167L16.65 15.38L16.7029 17.3031C16.7068 17.4438 16.5938 17.56 16.453 17.56H15.547C15.4062 17.56 15.2932 17.4438 15.2971 17.3031L15.35 15.38Z" fill="#1D1D1B"/>
<path d="M25.25 21C25.6642 21 26 21.3358 26 21.75V22.75C26 23.1642 25.6642 23.5 25.25 23.5C24.8358 23.5 24.5 23.1642 24.5 22.75V21.75C24.5 21.3358 24.8358 21 25.25 21Z" fill="#1D1D1B"/>
<path fill-rule="evenodd" clip-rule="evenodd" d="M25.25 12C23.7312 12 22.5 13.2312 22.5 14.75V18H20.75C20.0596 18 19.5 18.5596 19.5 19.25V25.25C19.5 25.9404 20.0596 26.5 20.75 26.5H29.75C30.4404 26.5 31 25.9404 31 25.25V19.25C31 18.5596 30.4404 18 29.75 18H28V14.75C28 13.2312 26.7688 12 25.25 12ZM26.5 18V14.75C26.5 14.0596 25.9404 13.5 25.25 13.5C24.5596 13.5 24 14.0596 24 14.75V18H26.5ZM21 25V19.5H29.5V25H21Z" fill="#1D1D1B"/>
</svg>
