<svg width="32" height="32" viewBox="0 0 32 32" fill="none" xmlns="http://www.w3.org/2000/svg">
<path fill-rule="evenodd" clip-rule="evenodd" d="M16.5 19.4411C18.767 19.0816 20.5 17.1182 20.5 14.75C20.5 12.1267 18.3734 10 15.75 10C13.1266 10 11 12.1267 11 14.75C11 17.1182 12.733 19.0816 15 19.4411V22.75C15 23.1642 15.3358 23.5 15.75 23.5C16.1642 23.5 16.5 23.1642 16.5 22.75V19.4411ZM15.75 11.5C13.9551 11.5 12.5 12.9551 12.5 14.75C12.5 16.5449 13.9551 18 15.75 18C17.5449 18 19 16.5449 19 14.75C19 12.9551 17.5449 11.5 15.75 11.5Z" fill="#1D1D1B"/>
<path fill-rule="evenodd" clip-rule="evenodd" d="M14.3809 2.67121C15.2287 2.18447 16.2713 2.18447 17.1191 2.67121L25.1191 7.2638C25.9733 7.75415 26.5 8.66385 26.5 9.64874V19.0982C26.5 22.3896 24.4998 24.8871 22.3517 26.6222C20.195 28.3641 17.7705 29.4379 16.6481 29.8822C16.0684 30.1117 15.4316 30.1117 14.8519 29.8822C13.7295 29.4379 11.305 28.3641 9.14831 26.6221C7.00017 24.8871 5 22.3896 5 19.0982V9.64875C5 8.66385 5.52671 7.75415 6.38086 7.2638L14.3809 2.67121ZM16.3723 3.97209C15.9869 3.75084 15.5131 3.75084 15.1277 3.97209L7.12767 8.56468C6.73941 8.78756 6.5 9.20106 6.5 9.64875V19.0982C6.5 21.7309 8.09626 23.8442 10.0908 25.4552C12.0768 27.0593 14.3413 28.0668 15.404 28.4875C15.629 28.5766 15.871 28.5766 16.096 28.4875C17.1587 28.0668 19.4232 27.0593 21.4092 25.4552C23.4037 23.8442 25 21.7309 25 19.0982V9.64874C25 9.20106 24.7606 8.78756 24.3723 8.56468L16.3723 3.97209Z" fill="#1D1D1B"/>
</svg>
